<?xml version="1.0" encoding="utf-8" ?>
<svg baseProfile="tiny" height="100%" version="1.2" width="100%" xmlns="http://www.w3.org/2000/svg" xmlns:ev="http://www.w3.org/2001/xml-events" xmlns:xlink="http://www.w3.org/1999/xlink"><defs /><path d="M 256.00,496.00 L 255.00,495.00 L 255.00,495.00 L 254.00,495.00 L 253.00,495.00 L 252.00,494.00 L 252.00,494.00 L 251.00,493.00 L 251.00,493.00 L 250.00,492.00 L 250.00,491.00 L 250.00,490.00 L 250.00,489.00 L 250.00,488.00 L 250.00,487.00 L 250.00,486.00 L 251.00,485.00 L 251.00,485.00 L 251.00,484.00 L 251.00,483.00 L 251.00,482.00 L 252.00,481.00 L 252.00,481.00 L 252.00,480.00 L 252.00,479.00 L 252.00,478.00 L 253.00,477.00 L 253.00,477.00 L 253.00,476.00 L 253.00,475.00 L 253.00,474.00 L 253.00,473.00 L 254.00,472.00 L 254.00,472.00 L 254.00,471.00 L 254.00,470.00 L 254.00,469.00 L 255.00,468.00 L 255.00,468.00 L 255.00,467.00 L 255.00,466.00 L 255.00,465.00 L 255.00,464.00 L 256.00,463.00 L 256.00,463.00 L 257.00,462.00 L 257.00,462.00 L 257.00,461.00 L 258.00,460.00 L 258.00,460.00 L 259.00,459.00 L 259.00,459.00 L 260.00,458.00 L 260.00,458.00 L 261.00,457.00 L 261.00,457.00 L 261.00,456.00 L 262.00,455.00 L 262.00,455.00 L 263.00,454.00 L 263.00,454.00 L 264.00,453.00 L 264.00,453.00 L 264.00,452.00 L 265.00,451.00 L 265.00,451.00 L 266.00,450.00 L 266.00,450.00 L 267.00,449.00 L 267.00,449.00 L 268.00,448.00 L 268.00,448.00 L 268.00,447.00 L 269.00,446.00 L 269.00,446.00 L 270.00,445.00 L 270.00,445.00 L 271.00,444.00 L 271.00,444.00 L 272.00,443.00 L 272.00,443.00 L 272.00,442.00 L 273.00,441.00 L 273.00,441.00 L 274.00,440.00 L 274.00,440.00 L 275.00,439.00 L 275.00,439.00 L 275.00,438.00 L 276.00,437.00 L 276.00,437.00 L 277.00,436.00 L 277.00,436.00 L 278.00,435.00 L 278.00,435.00 L 279.00,434.00 L 279.00,434.00 L 279.00,433.00 L 280.00,432.00 L 280.00,432.00 L 281.00,431.00 L 281.00,431.00 L 282.00,430.00 L 282.00,430.00 L 283.00,429.00 L 283.00,429.00 L 283.00,428.00 L 284.00,427.00 L 284.00,427.00 L 285.00,426.00 L 285.00,426.00 L 286.00,425.00 L 286.00,425.00 L 287.00,424.00 L 287.00,424.00 L 287.00,423.00 L 288.00,422.00 L 288.00,422.00 L 289.00,421.00 L 289.00,421.00 L 290.00,420.00 L 290.00,420.00 L 290.00,419.00 L 291.00,418.00 L 291.00,418.00 L 292.00,417.00 L 292.00,417.00 L 293.00,416.00 L 293.00,416.00 L 294.00,415.00 L 294.00,415.00 L 294.00,414.00 L 295.00,413.00 L 295.00,413.00 L 296.00,412.00 L 296.00,412.00 L 297.00,411.00 L 297.00,411.00 L 298.00,410.00 L 298.00,410.00 L 298.00,409.00 L 299.00,408.00 L 299.00,408.00 L 300.00,407.00 L 300.00,407.00 L 301.00,406.00 L 301.00,406.00 L 302.00,405.00 L 302.00,405.00 L 302.00,404.00 L 303.00,403.00 L 303.00,403.00 L 304.00,402.00 L 304.00,402.00 L 305.00,401.00 L 305.00,401.00 L 306.00,400.00 L 306.00,400.00 L 306.00,399.00 L 307.00,398.00 L 307.00,398.00 L 308.00,397.00 L 308.00,397.00 L 309.00,396.00 L 309.00,396.00 L 310.00,395.00 L 310.00,395.00 L 310.00,394.00 L 311.00,393.00 L 311.00,393.00 L 312.00,392.00 L 313.00,392.00 L 313.00,392.00 L 314.00,391.00 L 315.00,391.00 L 316.00,391.00 L 317.00,391.00 L 318.00,391.00 L 319.00,391.00 L 320.00,391.00 L 321.00,392.00 L 321.00,392.00 L 322.00,392.00 L 323.00,393.00 L 323.00,393.00 L 324.00,393.00 L 325.00,394.00 L 325.00,394.00 L 326.00,395.00 L 326.00,395.00 L 327.00,396.00 L 327.00,396.00 L 328.00,397.00 L 328.00,397.00 L 329.00,398.00 L 329.00,399.00 L 329.00,399.00 L 330.00,400.00 L 330.00,401.00 L 330.00,402.00 L 330.00,403.00 L 330.00,404.00 L 330.00,405.00 L 330.00,406.00 L 329.00,407.00 L 329.00,407.00 L 329.00,408.00 L 328.00,409.00 L 328.00,409.00 L 328.00,410.00 L 327.00,411.00 L 327.00,411.00 L 326.00,412.00 L 326.00,412.00 L 326.00,413.00 L 325.00,414.00 L 325.00,414.00 L 324.00,415.00 L 324.00,415.00 L 324.00,416.00 L 323.00,417.00 L 323.00,417.00 L 323.00,418.00 L 322.00,419.00 L 322.00,419.00 L 321.00,420.00 L 321.00,420.00 L 321.00,421.00 L 320.00,422.00 L 320.00,422.00 L 319.00,423.00 L 319.00,423.00 L 319.00,424.00 L 318.00,425.00 L 318.00,425.00 L 317.00,426.00 L 317.00,426.00 L 317.00,427.00 L 316.00,428.00 L 316.00,428.00 L 316.00,429.00 L 315.00,430.00 L 315.00,430.00 L 314.00,431.00 L 314.00,431.00 L 314.00,432.00 L 313.00,433.00 L 313.00,433.00 L 312.00,434.00 L 312.00,434.00 L 312.00,435.00 L 311.00,436.00 L 311.00,436.00 L 311.00,437.00 L 310.00,438.00 L 310.00,438.00 L 309.00,439.00 L 309.00,439.00 L 309.00,440.00 L 308.00,441.00 L 308.00,441.00 L 307.00,442.00 L 307.00,442.00 L 307.00,443.00 L 306.00,444.00 L 306.00,444.00 L 306.00,445.00 L 305.00,446.00 L 305.00,446.00 L 304.00,447.00 L 304.00,447.00 L 304.00,448.00 L 303.00,449.00 L 303.00,449.00 L 302.00,450.00 L 302.00,450.00 L 302.00,451.00 L 301.00,452.00 L 301.00,452.00 L 300.00,453.00 L 300.00,453.00 L 300.00,454.00 L 299.00,455.00 L 299.00,455.00 L 299.00,456.00 L 298.00,457.00 L 298.00,457.00 L 297.00,458.00 L 297.00,458.00 L 297.00,459.00 L 296.00,460.00 L 296.00,460.00 L 295.00,461.00 L 295.00,461.00 L 295.00,462.00 L 294.00,463.00 L 294.00,463.00 L 293.00,464.00 L 293.00,464.00 L 293.00,465.00 L 292.00,466.00 L 292.00,466.00 L 292.00,467.00 L 291.00,468.00 L 291.00,468.00 L 290.00,469.00 L 290.00,469.00 L 290.00,470.00 L 289.00,471.00 L 289.00,471.00 L 288.00,472.00 L 288.00,472.00 L 288.00,473.00 L 287.00,474.00 L 287.00,474.00 L 287.00,475.00 L 286.00,476.00 L 286.00,476.00 L 285.00,477.00 L 285.00,477.00 L 285.00,478.00 L 284.00,479.00 L 284.00,479.00 L 283.00,480.00 L 283.00,480.00 L 282.00,481.00 L 282.00,481.00 L 281.00,482.00 L 280.00,482.00 L 280.00,482.00 L 279.00,483.00 L 278.00,483.00 L 278.00,483.00 L 277.00,484.00 L 277.00,484.00 L 276.00,485.00 L 275.00,485.00 L 275.00,485.00 L 274.00,486.00 L 273.00,486.00 L 273.00,486.00 L 272.00,487.00 L 272.00,487.00 L 271.00,488.00 L 270.00,488.00 L 270.00,488.00 L 269.00,489.00 L 268.00,489.00 L 268.00,489.00 L 267.00,490.00 L 267.00,490.00 L 266.00,491.00 L 265.00,491.00 L 265.00,491.00 L 264.00,492.00 L 263.00,492.00 L 263.00,492.00 L 262.00,493.00 L 261.00,493.00 L 261.00,493.00 L 260.00,494.00 L 260.00,494.00 L 259.00,495.00 L 258.00,495.00 L 257.00,495.00 L 257.00,495.00 L 256.00,496.00 Z" fill="black" stroke="none" /><path d="M 241.00,593.00 L 240.00,593.00 L 239.00,593.00 L 238.00,593.00 L 237.00,593.00 L 236.00,592.00 L 236.00,592.00 L 235.00,592.00 L 234.00,591.00 L 234.00,591.00 L 233.00,590.00 L 233.00,590.00 L 232.00,590.00 L 231.00,589.00 L 231.00,589.00 L 230.00,588.00 L 230.00,588.00 L 229.00,588.00 L 228.00,587.00 L 228.00,587.00 L 227.00,586.00 L 227.00,586.00 L 226.00,586.00 L 225.00,585.00 L 225.00,585.00 L 224.00,585.00 L 223.00,584.00 L 223.00,584.00 L 222.00,584.00 L 221.00,584.00 L 220.00,583.00 L 220.00,583.00 L 219.00,583.00 L 218.00,582.00 L 218.00,582.00 L 217.00,582.00 L 216.00,581.00 L 216.00,581.00 L 215.00,581.00 L 214.00,581.00 L 213.00,580.00 L 213.00,580.00 L 212.00,580.00 L 211.00,580.00 L 210.00,579.00 L 210.00,579.00 L 209.00,579.00 L 208.00,579.00 L 207.00,579.00 L 206.00,578.00 L 206.00,578.00 L 205.00,578.00 L 204.00,578.00 L 203.00,578.00 L 202.00,577.00 L 202.00,577.00 L 201.00,577.00 L 200.00,577.00 L 199.00,577.00 L 198.00,577.00 L 197.00,577.00 L 196.00,576.00 L 196.00,576.00 L 195.00,576.00 L 194.00,576.00 L 193.00,576.00 L 192.00,576.00 L 191.00,576.00 L 190.00,576.00 L 189.00,576.00 L 188.00,576.00 L 187.00,576.00 L 186.00,576.00 L 185.00,575.00 L 185.00,575.00 L 184.00,575.00 L 183.00,575.00 L 182.00,575.00 L 181.00,575.00 L 180.00,575.00 L 179.00,575.00 L 178.00,575.00 L 177.00,575.00 L 176.00,575.00 L 175.00,575.00 L 174.00,575.00 L 173.00,575.00 L 172.00,575.00 L 171.00,575.00 L 170.00,575.00 L 169.00,575.00 L 168.00,575.00 L 167.00,575.00 L 166.00,575.00 L 165.00,575.00 L 164.00,575.00 L 163.00,575.00 L 162.00,575.00 L 161.00,575.00 L 160.00,575.00 L 159.00,575.00 L 158.00,575.00 L 157.00,575.00 L 156.00,575.00 L 155.00,575.00 L 154.00,575.00 L 153.00,575.00 L 152.00,574.00 L 152.00,574.00 L 151.00,574.00 L 150.00,573.00 L 150.00,573.00 L 149.00,573.00 L 148.00,572.00 L 148.00,572.00 L 147.00,571.00 L 147.00,571.00 L 146.00,571.00 L 145.00,570.00 L 145.00,570.00 L 144.00,569.00 L 144.00,568.00 L 144.00,568.00 L 143.00,567.00 L 143.00,567.00 L 142.00,566.00 L 142.00,565.00 L 142.00,565.00 L 141.00,564.00 L 141.00,563.00 L 141.00,563.00 L 140.00,562.00 L 140.00,561.00 L 140.00,560.00 L 140.00,559.00 L 140.00,558.00 L 140.00,557.00 L 140.00,556.00 L 140.00,555.00 L 140.00,554.00 L 140.00,553.00 L 140.00,552.00 L 140.00,551.00 L 140.00,550.00 L 140.00,549.00 L 140.00,548.00 L 140.00,547.00 L 140.00,546.00 L 140.00,545.00 L 140.00,544.00 L 140.00,543.00 L 140.00,542.00 L 140.00,541.00 L 140.00,540.00 L 140.00,539.00 L 140.00,538.00 L 140.00,537.00 L 140.00,536.00 L 140.00,535.00 L 140.00,534.00 L 140.00,533.00 L 140.00,532.00 L 140.00,531.00 L 140.00,530.00 L 140.00,529.00 L 140.00,528.00 L 140.00,527.00 L 140.00,526.00 L 140.00,525.00 L 140.00,524.00 L 140.00,523.00 L 140.00,522.00 L 140.00,521.00 L 140.00,520.00 L 140.00,519.00 L 140.00,518.00 L 140.00,517.00 L 140.00,516.00 L 140.00,515.00 L 140.00,514.00 L 140.00,513.00 L 140.00,512.00 L 140.00,511.00 L 140.00,510.00 L 140.00,509.00 L 140.00,508.00 L 140.00,507.00 L 140.00,506.00 L 140.00,505.00 L 140.00,504.00 L 140.00,503.00 L 140.00,502.00 L 140.00,501.00 L 140.00,500.00 L 140.00,499.00 L 140.00,498.00 L 140.00,497.00 L 140.00,496.00 L 140.00,495.00 L 140.00,494.00 L 140.00,493.00 L 140.00,492.00 L 140.00,491.00 L 140.00,490.00 L 140.00,489.00 L 140.00,488.00 L 140.00,487.00 L 140.00,486.00 L 140.00,485.00 L 140.00,484.00 L 140.00,483.00 L 140.00,482.00 L 140.00,481.00 L 140.00,480.00 L 140.00,479.00 L 140.00,478.00 L 140.00,477.00 L 140.00,476.00 L 140.00,475.00 L 140.00,474.00 L 140.00,473.00 L 140.00,472.00 L 140.00,471.00 L 140.00,470.00 L 140.00,469.00 L 140.00,468.00 L 140.00,467.00 L 140.00,466.00 L 140.00,465.00 L 140.00,464.00 L 140.00,463.00 L 140.00,462.00 L 140.00,461.00 L 140.00,460.00 L 140.00,459.00 L 140.00,458.00 L 140.00,457.00 L 140.00,456.00 L 140.00,455.00 L 140.00,454.00 L 140.00,453.00 L 140.00,452.00 L 140.00,451.00 L 140.00,450.00 L 140.00,449.00 L 140.00,448.00 L 140.00,447.00 L 140.00,446.00 L 140.00,445.00 L 140.00,444.00 L 140.00,443.00 L 140.00,442.00 L 140.00,441.00 L 140.00,440.00 L 140.00,439.00 L 140.00,438.00 L 140.00,437.00 L 140.00,436.00 L 140.00,435.00 L 141.00,434.00 L 141.00,434.00 L 141.00,433.00 L 141.00,432.00 L 142.00,431.00 L 142.00,431.00 L 142.00,430.00 L 143.00,429.00 L 143.00,429.00 L 144.00,428.00 L 144.00,428.00 L 145.00,427.00 L 145.00,427.00 L 146.00,426.00 L 146.00,426.00 L 147.00,425.00 L 147.00,425.00 L 148.00,424.00 L 149.00,424.00 L 150.00,424.00 L 150.00,424.00 L 151.00,423.00 L 152.00,423.00 L 153.00,423.00 L 154.00,423.00 L 155.00,423.00 L 156.00,423.00 L 157.00,423.00 L 158.00,423.00 L 159.00,423.00 L 160.00,423.00 L 161.00,423.00 L 162.00,423.00 L 163.00,423.00 L 164.00,423.00 L 165.00,423.00 L 166.00,423.00 L 167.00,423.00 L 168.00,423.00 L 169.00,423.00 L 170.00,423.00 L 171.00,423.00 L 172.00,423.00 L 173.00,423.00 L 174.00,423.00 L 175.00,423.00 L 176.00,423.00 L 177.00,423.00 L 178.00,423.00 L 179.00,423.00 L 180.00,423.00 L 181.00,423.00 L 182.00,423.00 L 183.00,423.00 L 184.00,423.00 L 185.00,423.00 L 186.00,423.00 L 187.00,423.00 L 188.00,423.00 L 189.00,424.00 L 189.00,424.00 L 190.00,424.00 L 191.00,424.00 L 192.00,424.00 L 193.00,424.00 L 194.00,424.00 L 195.00,424.00 L 196.00,424.00 L 197.00,424.00 L 198.00,424.00 L 199.00,425.00 L 199.00,425.00 L 200.00,425.00 L 201.00,425.00 L 202.00,425.00 L 203.00,425.00 L 204.00,425.00 L 205.00,426.00 L 205.00,426.00 L 206.00,426.00 L 207.00,426.00 L 208.00,426.00 L 209.00,426.00 L 210.00,427.00 L 210.00,427.00 L 211.00,427.00 L 212.00,427.00 L 213.00,427.00 L 214.00,428.00 L 214.00,428.00 L 215.00,428.00 L 216.00,428.00 L 217.00,429.00 L 217.00,429.00 L 218.00,429.00 L 219.00,429.00 L 220.00,430.00 L 220.00,430.00 L 221.00,430.00 L 222.00,430.00 L 223.00,431.00 L 223.00,431.00 L 224.00,431.00 L 225.00,432.00 L 225.00,432.00 L 226.00,432.00 L 227.00,433.00 L 227.00,433.00 L 228.00,433.00 L 229.00,434.00 L 229.00,434.00 L 230.00,434.00 L 231.00,435.00 L 231.00,435.00 L 232.00,436.00 L 232.00,436.00 L 233.00,437.00 L 233.00,437.00 L 234.00,437.00 L 235.00,438.00 L 235.00,438.00 L 236.00,439.00 L 236.00,439.00 L 237.00,440.00 L 237.00,440.00 L 238.00,441.00 L 238.00,441.00 L 239.00,442.00 L 239.00,442.00 L 239.00,442.00 L 240.00,441.00 L 240.00,441.00 L 241.00,440.00 L 241.00,440.00 L 242.00,439.00 L 242.00,439.00 L 243.00,438.00 L 243.00,438.00 L 244.00,437.00 L 244.00,437.00 L 245.00,436.00 L 246.00,436.00 L 246.00,436.00 L 247.00,435.00 L 248.00,435.00 L 248.00,435.00 L 249.00,434.00 L 249.00,434.00 L 250.00,433.00 L 251.00,433.00 L 251.00,433.00 L 252.00,432.00 L 253.00,432.00 L 254.00,432.00 L 254.00,432.00 L 255.00,431.00 L 256.00,431.00 L 256.00,431.00 L 257.00,430.00 L 258.00,430.00 L 259.00,430.00 L 259.00,430.00 L 260.00,429.00 L 261.00,429.00 L 262.00,429.00 L 263.00,429.00 L 263.00,429.00 L 264.00,428.00 L 265.00,428.00 L 266.00,428.00 L 267.00,428.00 L 268.00,428.00 L 269.00,429.00 L 269.00,430.00 L 269.00,430.00 L 270.00,431.00 L 270.00,432.00 L 270.00,432.00 L 271.00,433.00 L 271.00,434.00 L 271.00,435.00 L 271.00,436.00 L 271.00,437.00 L 270.00,438.00 L 270.00,438.00 L 270.00,439.00 L 269.00,440.00 L 268.00,440.00 L 268.00,440.00 L 267.00,441.00 L 266.00,441.00 L 265.00,441.00 L 264.00,441.00 L 264.00,441.00 L 263.00,442.00 L 262.00,442.00 L 261.00,442.00 L 261.00,442.00 L 260.00,443.00 L 259.00,443.00 L 259.00,443.00 L 258.00,444.00 L 257.00,444.00 L 257.00,444.00 L 256.00,445.00 L 255.00,445.00 L 255.00,445.00 L 254.00,446.00 L 253.00,446.00 L 253.00,446.00 L 252.00,447.00 L 252.00,447.00 L 251.00,448.00 L 251.00,448.00 L 250.00,449.00 L 249.00,449.00 L 249.00,449.00 L 248.00,450.00 L 248.00,450.00 L 248.00,451.00 L 247.00,452.00 L 247.00,452.00 L 246.00,453.00 L 246.00,453.00 L 245.00,454.00 L 245.00,454.00 L 245.00,455.00 L 245.00,456.00 L 245.00,457.00 L 245.00,458.00 L 245.00,459.00 L 245.00,460.00 L 245.00,461.00 L 245.00,462.00 L 245.00,463.00 L 245.00,464.00 L 245.00,465.00 L 245.00,466.00 L 245.00,467.00 L 245.00,468.00 L 245.00,469.00 L 245.00,470.00 L 245.00,471.00 L 245.00,472.00 L 245.00,473.00 L 245.00,474.00 L 245.00,475.00 L 245.00,476.00 L 245.00,477.00 L 245.00,478.00 L 245.00,479.00 L 245.00,480.00 L 245.00,481.00 L 245.00,482.00 L 245.00,483.00 L 245.00,484.00 L 245.00,485.00 L 245.00,486.00 L 245.00,487.00 L 245.00,488.00 L 245.00,489.00 L 245.00,490.00 L 245.00,491.00 L 245.00,492.00 L 245.00,493.00 L 245.00,494.00 L 245.00,495.00 L 245.00,496.00 L 245.00,497.00 L 245.00,498.00 L 245.00,499.00 L 245.00,500.00 L 245.00,501.00 L 245.00,502.00 L 245.00,503.00 L 245.00,504.00 L 245.00,505.00 L 245.00,506.00 L 245.00,507.00 L 245.00,508.00 L 245.00,509.00 L 245.00,510.00 L 245.00,511.00 L 245.00,512.00 L 245.00,513.00 L 245.00,514.00 L 245.00,515.00 L 245.00,516.00 L 245.00,517.00 L 245.00,518.00 L 245.00,519.00 L 245.00,520.00 L 245.00,521.00 L 245.00,522.00 L 245.00,523.00 L 245.00,524.00 L 245.00,525.00 L 245.00,526.00 L 245.00,527.00 L 245.00,528.00 L 245.00,529.00 L 245.00,530.00 L 245.00,531.00 L 245.00,532.00 L 245.00,533.00 L 245.00,534.00 L 245.00,535.00 L 245.00,536.00 L 245.00,537.00 L 245.00,538.00 L 245.00,539.00 L 245.00,540.00 L 245.00,541.00 L 245.00,542.00 L 245.00,543.00 L 245.00,544.00 L 245.00,545.00 L 245.00,546.00 L 245.00,547.00 L 245.00,548.00 L 245.00,549.00 L 245.00,550.00 L 245.00,551.00 L 245.00,552.00 L 245.00,553.00 L 245.00,554.00 L 245.00,555.00 L 245.00,556.00 L 245.00,557.00 L 245.00,558.00 L 245.00,559.00 L 245.00,560.00 L 245.00,561.00 L 245.00,562.00 L 245.00,563.00 L 245.00,564.00 L 245.00,565.00 L 245.00,566.00 L 245.00,567.00 L 245.00,568.00 L 245.00,569.00 L 245.00,570.00 L 245.00,571.00 L 245.00,572.00 L 245.00,573.00 L 245.00,574.00 L 245.00,575.00 L 245.00,575.00 L 245.00,575.00 L 246.00,574.00 L 247.00,574.00 L 247.00,574.00 L 248.00,573.00 L 249.00,573.00 L 249.00,573.00 L 250.00,572.00 L 251.00,572.00 L 251.00,572.00 L 252.00,571.00 L 253.00,571.00 L 253.00,571.00 L 254.00,570.00 L 255.00,570.00 L 256.00,570.00 L 256.00,570.00 L 257.00,569.00 L 258.00,569.00 L 259.00,569.00 L 259.00,569.00 L 260.00,568.00 L 261.00,568.00 L 262.00,568.00 L 262.00,568.00 L 263.00,567.00 L 264.00,567.00 L 265.00,567.00 L 265.00,567.00 L 266.00,566.00 L 267.00,566.00 L 268.00,566.00 L 269.00,566.00 L 269.00,566.00 L 270.00,565.00 L 271.00,565.00 L 272.00,565.00 L 273.00,565.00 L 274.00,565.00 L 275.00,565.00 L 275.00,565.00 L 276.00,564.00 L 277.00,564.00 L 278.00,564.00 L 279.00,564.00 L 280.00,564.00 L 281.00,564.00 L 282.00,564.00 L 282.00,564.00 L 283.00,563.00 L 284.00,563.00 L 285.00,563.00 L 286.00,563.00 L 287.00,563.00 L 288.00,563.00 L 289.00,563.00 L 290.00,563.00 L 291.00,563.00 L 292.00,563.00 L 293.00,563.00 L 294.00,563.00 L 295.00,563.00 L 296.00,563.00 L 297.00,563.00 L 298.00,563.00 L 299.00,563.00 L 300.00,563.00 L 301.00,563.00 L 302.00,563.00 L 303.00,563.00 L 304.00,563.00 L 305.00,563.00 L 306.00,563.00 L 307.00,563.00 L 308.00,563.00 L 309.00,563.00 L 310.00,563.00 L 311.00,563.00 L 312.00,563.00 L 313.00,563.00 L 314.00,563.00 L 315.00,563.00 L 316.00,563.00 L 317.00,563.00 L 317.00,563.00 L 318.00,562.00 L 319.00,562.00 L 320.00,562.00 L 321.00,562.00 L 322.00,562.00 L 322.00,562.00 L 323.00,561.00 L 324.00,561.00 L 324.00,561.00 L 325.00,560.00 L 325.00,560.00 L 325.00,559.00 L 326.00,558.00 L 326.00,558.00 L 326.00,557.00 L 326.00,556.00 L 326.00,555.00 L 326.00,554.00 L 326.00,553.00 L 326.00,552.00 L 326.00,551.00 L 326.00,550.00 L 326.00,549.00 L 326.00,548.00 L 326.00,547.00 L 326.00,546.00 L 326.00,545.00 L 326.00,544.00 L 326.00,543.00 L 326.00,542.00 L 326.00,541.00 L 326.00,540.00 L 326.00,539.00 L 326.00,538.00 L 326.00,537.00 L 326.00,536.00 L 326.00,535.00 L 326.00,534.00 L 326.00,533.00 L 326.00,532.00 L 326.00,531.00 L 326.00,530.00 L 326.00,529.00 L 326.00,528.00 L 326.00,527.00 L 326.00,526.00 L 326.00,525.00 L 326.00,524.00 L 326.00,523.00 L 326.00,522.00 L 326.00,521.00 L 326.00,520.00 L 326.00,519.00 L 326.00,518.00 L 326.00,517.00 L 326.00,516.00 L 326.00,515.00 L 326.00,514.00 L 326.00,513.00 L 326.00,512.00 L 326.00,511.00 L 326.00,510.00 L 326.00,509.00 L 326.00,508.00 L 326.00,507.00 L 326.00,506.00 L 326.00,505.00 L 326.00,504.00 L 326.00,503.00 L 326.00,502.00 L 326.00,501.00 L 326.00,500.00 L 326.00,499.00 L 326.00,498.00 L 326.00,497.00 L 326.00,496.00 L 326.00,495.00 L 326.00,494.00 L 326.00,493.00 L 326.00,492.00 L 326.00,491.00 L 326.00,490.00 L 326.00,489.00 L 326.00,488.00 L 326.00,487.00 L 326.00,486.00 L 326.00,485.00 L 326.00,484.00 L 326.00,483.00 L 326.00,482.00 L 326.00,481.00 L 326.00,480.00 L 326.00,479.00 L 326.00,478.00 L 326.00,477.00 L 326.00,476.00 L 326.00,475.00 L 326.00,474.00 L 326.00,473.00 L 326.00,472.00 L 326.00,471.00 L 326.00,470.00 L 326.00,469.00 L 326.00,468.00 L 326.00,467.00 L 326.00,466.00 L 326.00,465.00 L 326.00,464.00 L 326.00,463.00 L 326.00,462.00 L 326.00,461.00 L 326.00,460.00 L 326.00,459.00 L 326.00,458.00 L 326.00,457.00 L 326.00,456.00 L 326.00,455.00 L 326.00,454.00 L 326.00,453.00 L 326.00,452.00 L 326.00,451.00 L 326.00,450.00 L 326.00,449.00 L 326.00,448.00 L 326.00,447.00 L 326.00,446.00 L 326.00,445.00 L 326.00,444.00 L 326.00,443.00 L 326.00,442.00 L 326.00,441.00 L 326.00,440.00 L 326.00,440.00 L 325.00,439.00 L 325.00,439.00 L 324.00,439.00 L 323.00,438.00 L 323.00,437.00 L 323.00,436.00 L 324.00,435.00 L 324.00,435.00 L 325.00,434.00 L 325.00,434.00 L 326.00,433.00 L 326.00,433.00 L 326.00,432.00 L 327.00,431.00 L 327.00,431.00 L 328.00,430.00 L 328.00,430.00 L 329.00,429.00 L 330.00,429.00 L 331.00,429.00 L 332.00,429.00 L 333.00,430.00 L 333.00,430.00 L 334.00,430.00 L 335.00,431.00 L 335.00,431.00 L 336.00,432.00 L 336.00,432.00 L 337.00,433.00 L 337.00,434.00 L 337.00,434.00 L 338.00,435.00 L 338.00,436.00 L 338.00,437.00 L 338.00,437.00 L 339.00,438.00 L 339.00,439.00 L 339.00,440.00 L 339.00,441.00 L 339.00,442.00 L 339.00,443.00 L 339.00,444.00 L 339.00,445.00 L 339.00,446.00 L 339.00,447.00 L 339.00,448.00 L 339.00,449.00 L 339.00,450.00 L 339.00,451.00 L 339.00,452.00 L 339.00,453.00 L 339.00,454.00 L 339.00,455.00 L 339.00,456.00 L 339.00,457.00 L 339.00,458.00 L 339.00,459.00 L 339.00,460.00 L 339.00,461.00 L 339.00,462.00 L 339.00,463.00 L 339.00,464.00 L 339.00,465.00 L 339.00,466.00 L 339.00,467.00 L 339.00,468.00 L 339.00,469.00 L 339.00,470.00 L 339.00,471.00 L 339.00,472.00 L 339.00,473.00 L 339.00,474.00 L 339.00,475.00 L 339.00,476.00 L 339.00,477.00 L 339.00,478.00 L 339.00,479.00 L 339.00,480.00 L 339.00,481.00 L 339.00,482.00 L 339.00,483.00 L 339.00,484.00 L 339.00,485.00 L 339.00,486.00 L 339.00,487.00 L 339.00,488.00 L 339.00,489.00 L 339.00,490.00 L 339.00,491.00 L 339.00,492.00 L 339.00,493.00 L 339.00,494.00 L 339.00,495.00 L 339.00,496.00 L 339.00,497.00 L 339.00,498.00 L 339.00,499.00 L 339.00,500.00 L 339.00,501.00 L 339.00,502.00 L 339.00,503.00 L 339.00,504.00 L 339.00,505.00 L 339.00,506.00 L 339.00,507.00 L 339.00,508.00 L 339.00,509.00 L 339.00,510.00 L 339.00,511.00 L 339.00,512.00 L 339.00,513.00 L 339.00,514.00 L 339.00,515.00 L 339.00,516.00 L 339.00,517.00 L 339.00,518.00 L 339.00,519.00 L 339.00,520.00 L 339.00,521.00 L 339.00,522.00 L 339.00,523.00 L 339.00,524.00 L 339.00,525.00 L 339.00,526.00 L 339.00,527.00 L 339.00,528.00 L 339.00,529.00 L 339.00,530.00 L 339.00,531.00 L 339.00,532.00 L 339.00,533.00 L 339.00,534.00 L 339.00,535.00 L 339.00,536.00 L 339.00,537.00 L 339.00,538.00 L 339.00,539.00 L 339.00,540.00 L 339.00,541.00 L 339.00,542.00 L 339.00,543.00 L 339.00,544.00 L 339.00,545.00 L 339.00,546.00 L 339.00,547.00 L 339.00,548.00 L 339.00,549.00 L 339.00,550.00 L 339.00,551.00 L 339.00,552.00 L 339.00,553.00 L 339.00,554.00 L 339.00,555.00 L 339.00,556.00 L 339.00,557.00 L 339.00,558.00 L 339.00,559.00 L 339.00,560.00 L 338.00,561.00 L 338.00,561.00 L 338.00,562.00 L 338.00,563.00 L 337.00,564.00 L 337.00,564.00 L 337.00,565.00 L 336.00,566.00 L 336.00,566.00 L 336.00,567.00 L 335.00,568.00 L 335.00,568.00 L 334.00,569.00 L 334.00,569.00 L 333.00,570.00 L 333.00,570.00 L 332.00,571.00 L 332.00,571.00 L 331.00,572.00 L 331.00,572.00 L 330.00,573.00 L 329.00,573.00 L 329.00,573.00 L 328.00,574.00 L 327.00,574.00 L 327.00,574.00 L 326.00,575.00 L 325.00,575.00 L 324.00,575.00 L 323.00,575.00 L 322.00,575.00 L 321.00,575.00 L 320.00,575.00 L 319.00,575.00 L 318.00,575.00 L 317.00,575.00 L 316.00,575.00 L 315.00,575.00 L 314.00,575.00 L 313.00,575.00 L 312.00,575.00 L 311.00,575.00 L 310.00,575.00 L 309.00,575.00 L 308.00,575.00 L 307.00,575.00 L 306.00,575.00 L 305.00,575.00 L 304.00,575.00 L 303.00,575.00 L 302.00,575.00 L 301.00,575.00 L 300.00,575.00 L 299.00,575.00 L 298.00,575.00 L 297.00,575.00 L 296.00,575.00 L 295.00,575.00 L 294.00,575.00 L 293.00,575.00 L 293.00,575.00 L 292.00,576.00 L 291.00,576.00 L 290.00,576.00 L 289.00,576.00 L 288.00,576.00 L 287.00,576.00 L 286.00,576.00 L 285.00,576.00 L 284.00,576.00 L 283.00,576.00 L 282.00,576.00 L 282.00,576.00 L 281.00,577.00 L 280.00,577.00 L 279.00,577.00 L 278.00,577.00 L 277.00,577.00 L 276.00,577.00 L 276.00,577.00 L 275.00,578.00 L 274.00,578.00 L 273.00,578.00 L 272.00,578.00 L 271.00,578.00 L 271.00,578.00 L 270.00,579.00 L 269.00,579.00 L 268.00,579.00 L 267.00,579.00 L 267.00,579.00 L 266.00,580.00 L 265.00,580.00 L 264.00,580.00 L 264.00,580.00 L 263.00,581.00 L 262.00,581.00 L 261.00,581.00 L 261.00,581.00 L 260.00,582.00 L 259.00,582.00 L 259.00,582.00 L 258.00,583.00 L 257.00,583.00 L 257.00,583.00 L 256.00,584.00 L 255.00,584.00 L 255.00,584.00 L 254.00,585.00 L 253.00,585.00 L 253.00,585.00 L 252.00,586.00 L 251.00,586.00 L 251.00,586.00 L 250.00,587.00 L 249.00,587.00 L 249.00,587.00 L 248.00,588.00 L 248.00,588.00 L 247.00,589.00 L 246.00,589.00 L 246.00,589.00 L 245.00,590.00 L 245.00,590.00 L 244.00,591.00 L 243.00,591.00 L 243.00,591.00 L 242.00,592.00 L 242.00,592.00 L 241.00,593.00 Z" fill="black" stroke="none" /><path d="M 233.00,575.00 L 233.00,574.00 L 233.00,573.00 L 233.00,572.00 L 233.00,571.00 L 233.00,570.00 L 233.00,569.00 L 233.00,568.00 L 233.00,567.00 L 233.00,566.00 L 233.00,565.00 L 233.00,564.00 L 233.00,563.00 L 233.00,562.00 L 233.00,561.00 L 233.00,560.00 L 233.00,559.00 L 233.00,558.00 L 233.00,557.00 L 233.00,556.00 L 233.00,555.00 L 233.00,554.00 L 233.00,553.00 L 233.00,552.00 L 233.00,551.00 L 233.00,550.00 L 233.00,549.00 L 233.00,548.00 L 233.00,547.00 L 233.00,546.00 L 233.00,545.00 L 233.00,544.00 L 233.00,543.00 L 233.00,542.00 L 233.00,541.00 L 233.00,540.00 L 233.00,539.00 L 233.00,538.00 L 233.00,537.00 L 233.00,536.00 L 233.00,535.00 L 233.00,534.00 L 233.00,533.00 L 233.00,532.00 L 233.00,531.00 L 233.00,530.00 L 233.00,529.00 L 233.00,528.00 L 233.00,527.00 L 233.00,526.00 L 233.00,525.00 L 233.00,524.00 L 233.00,523.00 L 233.00,522.00 L 233.00,521.00 L 233.00,520.00 L 233.00,519.00 L 233.00,518.00 L 233.00,517.00 L 233.00,516.00 L 233.00,515.00 L 233.00,514.00 L 233.00,513.00 L 233.00,512.00 L 233.00,511.00 L 233.00,510.00 L 233.00,509.00 L 233.00,508.00 L 233.00,507.00 L 233.00,506.00 L 233.00,505.00 L 233.00,504.00 L 233.00,503.00 L 233.00,502.00 L 233.00,501.00 L 233.00,500.00 L 233.00,499.00 L 233.00,498.00 L 233.00,497.00 L 233.00,496.00 L 233.00,495.00 L 233.00,494.00 L 233.00,493.00 L 233.00,492.00 L 233.00,491.00 L 233.00,490.00 L 233.00,489.00 L 233.00,488.00 L 233.00,487.00 L 233.00,486.00 L 233.00,485.00 L 233.00,484.00 L 233.00,483.00 L 233.00,482.00 L 233.00,481.00 L 233.00,480.00 L 233.00,479.00 L 233.00,478.00 L 233.00,477.00 L 233.00,476.00 L 233.00,475.00 L 233.00,474.00 L 233.00,473.00 L 233.00,472.00 L 233.00,471.00 L 233.00,470.00 L 233.00,469.00 L 233.00,468.00 L 233.00,467.00 L 233.00,466.00 L 233.00,465.00 L 233.00,464.00 L 233.00,463.00 L 233.00,462.00 L 233.00,461.00 L 233.00,460.00 L 233.00,459.00 L 233.00,458.00 L 233.00,457.00 L 233.00,456.00 L 233.00,456.00 L 232.00,455.00 L 232.00,454.00 L 232.00,454.00 L 231.00,453.00 L 231.00,452.00 L 231.00,452.00 L 230.00,451.00 L 230.00,451.00 L 229.00,450.00 L 229.00,450.00 L 228.00,449.00 L 228.00,449.00 L 227.00,448.00 L 227.00,448.00 L 226.00,447.00 L 226.00,447.00 L 225.00,447.00 L 224.00,446.00 L 224.00,446.00 L 223.00,445.00 L 223.00,445.00 L 222.00,445.00 L 221.00,444.00 L 221.00,444.00 L 220.00,444.00 L 219.00,443.00 L 219.00,443.00 L 218.00,443.00 L 217.00,442.00 L 217.00,442.00 L 216.00,442.00 L 215.00,441.00 L 215.00,441.00 L 214.00,441.00 L 213.00,441.00 L 212.00,440.00 L 212.00,440.00 L 211.00,440.00 L 210.00,440.00 L 209.00,439.00 L 209.00,439.00 L 208.00,439.00 L 207.00,439.00 L 206.00,439.00 L 205.00,439.00 L 204.00,438.00 L 204.00,438.00 L 203.00,438.00 L 202.00,438.00 L 201.00,438.00 L 200.00,438.00 L 199.00,437.00 L 199.00,437.00 L 198.00,437.00 L 197.00,437.00 L 196.00,437.00 L 195.00,437.00 L 194.00,437.00 L 193.00,437.00 L 192.00,436.00 L 192.00,436.00 L 191.00,436.00 L 190.00,436.00 L 189.00,436.00 L 188.00,436.00 L 187.00,436.00 L 186.00,436.00 L 185.00,436.00 L 184.00,436.00 L 183.00,436.00 L 182.00,436.00 L 181.00,436.00 L 180.00,436.00 L 179.00,436.00 L 178.00,436.00 L 177.00,436.00 L 176.00,435.00 L 176.00,435.00 L 175.00,435.00 L 174.00,435.00 L 173.00,435.00 L 172.00,435.00 L 171.00,435.00 L 170.00,435.00 L 169.00,435.00 L 168.00,435.00 L 167.00,435.00 L 166.00,435.00 L 165.00,435.00 L 164.00,435.00 L 163.00,435.00 L 162.00,435.00 L 161.00,435.00 L 160.00,435.00 L 159.00,435.00 L 158.00,435.00 L 157.00,435.00 L 157.00,435.00 L 156.00,436.00 L 155.00,436.00 L 154.00,436.00 L 154.00,436.00 L 153.00,437.00 L 153.00,437.00 L 153.00,438.00 L 153.00,439.00 L 153.00,440.00 L 153.00,441.00 L 153.00,442.00 L 153.00,443.00 L 153.00,444.00 L 153.00,445.00 L 153.00,446.00 L 153.00,447.00 L 153.00,448.00 L 153.00,449.00 L 153.00,450.00 L 153.00,451.00 L 152.00,452.00 L 152.00,452.00 L 152.00,452.00 L 153.00,453.00 L 152.00,454.00 L 152.00,454.00 L 152.00,454.00 L 153.00,455.00 L 152.00,456.00 L 152.00,456.00 L 152.00,457.00 L 152.00,458.00 L 152.00,459.00 L 152.00,460.00 L 152.00,461.00 L 152.00,462.00 L 152.00,463.00 L 152.00,463.00 L 153.00,464.00 L 153.00,465.00 L 152.00,466.00 L 152.00,466.00 L 152.00,467.00 L 152.00,468.00 L 152.00,468.00 L 153.00,469.00 L 152.00,470.00 L 152.00,470.00 L 152.00,471.00 L 152.00,472.00 L 152.00,473.00 L 152.00,474.00 L 152.00,475.00 L 152.00,476.00 L 152.00,477.00 L 152.00,478.00 L 152.00,479.00 L 152.00,480.00 L 152.00,481.00 L 152.00,482.00 L 152.00,483.00 L 152.00,484.00 L 152.00,485.00 L 152.00,486.00 L 152.00,487.00 L 152.00,488.00 L 152.00,489.00 L 152.00,490.00 L 152.00,491.00 L 152.00,492.00 L 152.00,493.00 L 152.00,494.00 L 152.00,495.00 L 152.00,496.00 L 152.00,497.00 L 152.00,498.00 L 152.00,499.00 L 152.00,500.00 L 152.00,501.00 L 152.00,502.00 L 152.00,503.00 L 152.00,504.00 L 152.00,505.00 L 152.00,506.00 L 152.00,507.00 L 152.00,508.00 L 152.00,509.00 L 152.00,510.00 L 152.00,511.00 L 152.00,512.00 L 152.00,513.00 L 152.00,514.00 L 152.00,515.00 L 152.00,516.00 L 152.00,517.00 L 152.00,518.00 L 152.00,519.00 L 152.00,520.00 L 152.00,521.00 L 152.00,522.00 L 152.00,523.00 L 152.00,524.00 L 152.00,525.00 L 152.00,526.00 L 152.00,527.00 L 152.00,528.00 L 152.00,529.00 L 152.00,530.00 L 152.00,531.00 L 152.00,532.00 L 152.00,533.00 L 152.00,534.00 L 152.00,535.00 L 152.00,536.00 L 152.00,537.00 L 152.00,538.00 L 152.00,539.00 L 152.00,540.00 L 152.00,541.00 L 152.00,542.00 L 152.00,543.00 L 152.00,544.00 L 152.00,545.00 L 152.00,546.00 L 152.00,547.00 L 152.00,548.00 L 152.00,549.00 L 152.00,550.00 L 152.00,551.00 L 152.00,552.00 L 152.00,553.00 L 152.00,554.00 L 152.00,555.00 L 152.00,555.00 L 153.00,556.00 L 153.00,557.00 L 153.00,558.00 L 153.00,559.00 L 153.00,559.00 L 154.00,560.00 L 154.00,560.00 L 155.00,561.00 L 155.00,561.00 L 156.00,561.00 L 157.00,562.00 L 157.00,562.00 L 158.00,562.00 L 159.00,562.00 L 160.00,562.00 L 161.00,562.00 L 162.00,562.00 L 163.00,562.00 L 164.00,562.00 L 165.00,562.00 L 166.00,562.00 L 167.00,562.00 L 168.00,562.00 L 169.00,562.00 L 170.00,562.00 L 171.00,562.00 L 172.00,562.00 L 173.00,562.00 L 174.00,563.00 L 174.00,563.00 L 174.00,563.00 L 175.00,562.00 L 176.00,562.00 L 177.00,562.00 L 178.00,562.00 L 179.00,562.00 L 180.00,563.00 L 180.00,563.00 L 181.00,563.00 L 182.00,563.00 L 183.00,563.00 L 184.00,563.00 L 185.00,563.00 L 186.00,563.00 L 187.00,563.00 L 188.00,563.00 L 189.00,563.00 L 190.00,563.00 L 191.00,563.00 L 192.00,563.00 L 193.00,563.00 L 194.00,563.00 L 195.00,563.00 L 196.00,564.00 L 196.00,564.00 L 197.00,564.00 L 198.00,564.00 L 199.00,564.00 L 200.00,564.00 L 201.00,564.00 L 202.00,564.00 L 203.00,565.00 L 203.00,565.00 L 204.00,565.00 L 205.00,565.00 L 206.00,565.00 L 207.00,565.00 L 208.00,566.00 L 208.00,566.00 L 209.00,566.00 L 210.00,566.00 L 211.00,566.00 L 212.00,567.00 L 212.00,567.00 L 213.00,567.00 L 214.00,567.00 L 215.00,567.00 L 216.00,568.00 L 216.00,568.00 L 217.00,568.00 L 218.00,568.00 L 219.00,569.00 L 219.00,569.00 L 220.00,569.00 L 221.00,569.00 L 222.00,570.00 L 222.00,570.00 L 223.00,570.00 L 224.00,571.00 L 224.00,571.00 L 225.00,571.00 L 226.00,571.00 L 227.00,572.00 L 227.00,572.00 L 228.00,572.00 L 229.00,573.00 L 229.00,573.00 L 230.00,573.00 L 231.00,574.00 L 231.00,574.00 L 232.00,575.00 L 232.00,575.00 L 233.00,575.00 L 233.00,575.00 Z" fill="black" stroke="none" /><path d="M 733.00,469.00 L 732.00,469.00 L 731.00,469.00 L 730.00,469.00 L 729.00,469.00 L 728.00,469.00 L 727.00,468.00 L 727.00,468.00 L 726.00,468.00 L 725.00,467.00 L 725.00,467.00 L 724.00,467.00 L 723.00,466.00 L 723.00,466.00 L 722.00,465.00 L 722.00,465.00 L 721.00,464.00 L 721.00,463.00 L 721.00,463.00 L 720.00,462.00 L 720.00,461.00 L 720.00,460.00 L 720.00,460.00 L 719.00,459.00 L 719.00,458.00 L 719.00,457.00 L 719.00,456.00 L 720.00,455.00 L 720.00,455.00 L 720.00,454.00 L 720.00,453.00 L 721.00,452.00 L 721.00,452.00 L 722.00,451.00 L 722.00,451.00 L 723.00,450.00 L 723.00,450.00 L 724.00,449.00 L 724.00,449.00 L 725.00,448.00 L 726.00,448.00 L 726.00,448.00 L 727.00,447.00 L 728.00,447.00 L 729.00,447.00 L 730.00,447.00 L 731.00,447.00 L 732.00,447.00 L 733.00,447.00 L 734.00,447.00 L 735.00,447.00 L 736.00,448.00 L 736.00,448.00 L 737.00,448.00 L 738.00,449.00 L 738.00,449.00 L 739.00,450.00 L 739.00,450.00 L 740.00,451.00 L 740.00,452.00 L 740.00,452.00 L 741.00,453.00 L 741.00,454.00 L 741.00,454.00 L 742.00,455.00 L 742.00,456.00 L 742.00,457.00 L 742.00,458.00 L 742.00,459.00 L 742.00,460.00 L 742.00,461.00 L 741.00,462.00 L 741.00,462.00 L 741.00,463.00 L 740.00,464.00 L 740.00,464.00 L 739.00,465.00 L 739.00,465.00 L 738.00,466.00 L 738.00,466.00 L 737.00,467.00 L 737.00,467.00 L 736.00,468.00 L 735.00,468.00 L 734.00,468.00 L 734.00,468.00 L 733.00,469.00 Z" fill="black" stroke="none" /><path d="M 709.00,548.00 L 708.00,548.00 L 707.00,548.00 L 706.00,548.00 L 705.00,548.00 L 704.00,548.00 L 703.00,548.00 L 702.00,548.00 L 701.00,548.00 L 700.00,548.00 L 699.00,548.00 L 698.00,548.00 L 697.00,548.00 L 696.00,548.00 L 695.00,548.00 L 694.00,548.00 L 693.00,548.00 L 692.00,547.00 L 692.00,546.00 L 692.00,545.00 L 692.00,544.00 L 692.00,543.00 L 692.00,542.00 L 692.00,541.00 L 692.00,540.00 L 692.00,539.00 L 692.00,538.00 L 692.00,537.00 L 692.00,536.00 L 692.00,535.00 L 692.00,534.00 L 692.00,533.00 L 692.00,532.00 L 692.00,531.00 L 692.00,530.00 L 692.00,529.00 L 692.00,528.00 L 692.00,527.00 L 692.00,526.00 L 692.00,525.00 L 692.00,524.00 L 692.00,523.00 L 692.00,522.00 L 692.00,521.00 L 692.00,520.00 L 692.00,519.00 L 692.00,518.00 L 692.00,517.00 L 692.00,516.00 L 692.00,515.00 L 692.00,514.00 L 692.00,513.00 L 692.00,512.00 L 692.00,511.00 L 692.00,510.00 L 692.00,509.00 L 692.00,508.00 L 692.00,507.00 L 692.00,506.00 L 692.00,505.00 L 692.00,504.00 L 692.00,503.00 L 692.00,502.00 L 692.00,501.00 L 692.00,500.00 L 692.00,499.00 L 692.00,498.00 L 692.00,497.00 L 692.00,496.00 L 692.00,495.00 L 692.00,494.00 L 692.00,493.00 L 692.00,492.00 L 692.00,491.00 L 692.00,490.00 L 692.00,489.00 L 692.00,488.00 L 692.00,487.00 L 692.00,486.00 L 692.00,485.00 L 692.00,484.00 L 692.00,483.00 L 692.00,482.00 L 692.00,481.00 L 692.00,480.00 L 692.00,479.00 L 692.00,478.00 L 692.00,477.00 L 692.00,476.00 L 692.00,475.00 L 692.00,474.00 L 692.00,473.00 L 692.00,472.00 L 692.00,471.00 L 692.00,470.00 L 692.00,469.00 L 692.00,468.00 L 692.00,467.00 L 692.00,466.00 L 692.00,465.00 L 692.00,464.00 L 692.00,463.00 L 692.00,462.00 L 692.00,461.00 L 692.00,460.00 L 692.00,459.00 L 692.00,458.00 L 692.00,457.00 L 692.00,456.00 L 692.00,455.00 L 692.00,454.00 L 692.00,453.00 L 692.00,452.00 L 692.00,451.00 L 692.00,450.00 L 693.00,449.00 L 693.00,449.00 L 694.00,448.00 L 695.00,448.00 L 696.00,448.00 L 697.00,448.00 L 698.00,448.00 L 699.00,448.00 L 700.00,448.00 L 701.00,448.00 L 702.00,448.00 L 703.00,448.00 L 704.00,448.00 L 705.00,448.00 L 706.00,448.00 L 707.00,448.00 L 708.00,448.00 L 709.00,448.00 L 710.00,449.00 L 710.00,450.00 L 710.00,451.00 L 710.00,452.00 L 710.00,453.00 L 710.00,454.00 L 710.00,455.00 L 710.00,456.00 L 710.00,457.00 L 710.00,458.00 L 710.00,459.00 L 710.00,460.00 L 710.00,461.00 L 710.00,462.00 L 710.00,463.00 L 710.00,464.00 L 710.00,465.00 L 710.00,466.00 L 710.00,467.00 L 710.00,468.00 L 710.00,469.00 L 710.00,470.00 L 710.00,471.00 L 710.00,472.00 L 710.00,473.00 L 710.00,474.00 L 710.00,475.00 L 710.00,476.00 L 710.00,477.00 L 710.00,478.00 L 710.00,479.00 L 710.00,480.00 L 710.00,481.00 L 710.00,482.00 L 710.00,483.00 L 710.00,484.00 L 710.00,485.00 L 710.00,486.00 L 710.00,487.00 L 710.00,488.00 L 710.00,489.00 L 710.00,490.00 L 710.00,491.00 L 710.00,492.00 L 710.00,493.00 L 710.00,494.00 L 710.00,495.00 L 710.00,496.00 L 710.00,497.00 L 710.00,498.00 L 710.00,499.00 L 710.00,500.00 L 710.00,501.00 L 710.00,502.00 L 710.00,503.00 L 710.00,504.00 L 710.00,505.00 L 710.00,506.00 L 710.00,507.00 L 710.00,508.00 L 710.00,509.00 L 710.00,510.00 L 710.00,511.00 L 710.00,512.00 L 710.00,513.00 L 710.00,514.00 L 710.00,515.00 L 710.00,516.00 L 710.00,517.00 L 710.00,518.00 L 710.00,519.00 L 710.00,520.00 L 710.00,521.00 L 710.00,522.00 L 710.00,523.00 L 710.00,524.00 L 710.00,525.00 L 710.00,526.00 L 710.00,527.00 L 710.00,528.00 L 710.00,529.00 L 710.00,530.00 L 710.00,531.00 L 710.00,532.00 L 710.00,533.00 L 710.00,534.00 L 710.00,535.00 L 710.00,536.00 L 710.00,537.00 L 710.00,538.00 L 710.00,539.00 L 710.00,540.00 L 710.00,541.00 L 710.00,542.00 L 710.00,543.00 L 710.00,544.00 L 710.00,545.00 L 710.00,546.00 L 710.00,547.00 L 709.00,548.00 Z" fill="black" stroke="none" /><path d="M 412.00,550.00 L 411.00,550.00 L 410.00,550.00 L 409.00,550.00 L 408.00,550.00 L 407.00,550.00 L 406.00,550.00 L 405.00,550.00 L 404.00,550.00 L 403.00,550.00 L 402.00,550.00 L 401.00,550.00 L 400.00,550.00 L 399.00,550.00 L 398.00,550.00 L 397.00,549.00 L 397.00,549.00 L 396.00,549.00 L 395.00,549.00 L 394.00,549.00 L 393.00,549.00 L 392.00,548.00 L 392.00,548.00 L 391.00,548.00 L 390.00,548.00 L 389.00,547.00 L 389.00,547.00 L 388.00,547.00 L 387.00,546.00 L 387.00,546.00 L 386.00,546.00 L 385.00,545.00 L 385.00,545.00 L 384.00,545.00 L 383.00,544.00 L 383.00,544.00 L 382.00,544.00 L 381.00,543.00 L 381.00,543.00 L 380.00,542.00 L 380.00,542.00 L 379.00,542.00 L 378.00,541.00 L 378.00,541.00 L 377.00,540.00 L 377.00,540.00 L 376.00,539.00 L 376.00,538.00 L 376.00,538.00 L 375.00,537.00 L 375.00,537.00 L 374.00,536.00 L 374.00,536.00 L 373.00,535.00 L 373.00,534.00 L 373.00,534.00 L 372.00,533.00 L 372.00,533.00 L 371.00,532.00 L 371.00,531.00 L 371.00,531.00 L 370.00,530.00 L 370.00,529.00 L 370.00,528.00 L 370.00,528.00 L 369.00,527.00 L 369.00,526.00 L 369.00,525.00 L 369.00,524.00 L 369.00,523.00 L 369.00,523.00 L 368.00,522.00 L 369.00,521.00 L 369.00,521.00 L 370.00,520.00 L 370.00,520.00 L 371.00,519.00 L 372.00,519.00 L 373.00,519.00 L 374.00,519.00 L 375.00,519.00 L 375.00,519.00 L 376.00,518.00 L 377.00,518.00 L 378.00,518.00 L 379.00,518.00 L 380.00,518.00 L 381.00,518.00 L 381.00,518.00 L 382.00,517.00 L 383.00,517.00 L 384.00,517.00 L 385.00,517.00 L 386.00,518.00 L 386.00,519.00 L 386.00,520.00 L 386.00,520.00 L 387.00,521.00 L 387.00,522.00 L 387.00,523.00 L 387.00,523.00 L 388.00,524.00 L 388.00,525.00 L 388.00,525.00 L 389.00,526.00 L 389.00,526.00 L 390.00,527.00 L 390.00,527.00 L 391.00,528.00 L 391.00,528.00 L 392.00,529.00 L 392.00,529.00 L 393.00,530.00 L 393.00,530.00 L 394.00,531.00 L 394.00,531.00 L 395.00,531.00 L 396.00,532.00 L 396.00,532.00 L 397.00,532.00 L 398.00,533.00 L 398.00,533.00 L 399.00,533.00 L 400.00,533.00 L 401.00,533.00 L 402.00,534.00 L 402.00,534.00 L 403.00,534.00 L 404.00,534.00 L 405.00,534.00 L 406.00,534.00 L 407.00,534.00 L 408.00,534.00 L 409.00,534.00 L 409.00,534.00 L 410.00,533.00 L 411.00,533.00 L 412.00,533.00 L 413.00,533.00 L 413.00,533.00 L 414.00,532.00 L 415.00,532.00 L 416.00,532.00 L 416.00,532.00 L 417.00,531.00 L 417.00,531.00 L 418.00,530.00 L 418.00,530.00 L 419.00,529.00 L 419.00,529.00 L 420.00,528.00 L 420.00,528.00 L 421.00,527.00 L 421.00,527.00 L 421.00,526.00 L 421.00,525.00 L 422.00,524.00 L 422.00,524.00 L 422.00,523.00 L 422.00,522.00 L 422.00,521.00 L 422.00,520.00 L 422.00,520.00 L 421.00,519.00 L 421.00,518.00 L 421.00,517.00 L 421.00,517.00 L 420.00,516.00 L 420.00,516.00 L 419.00,515.00 L 419.00,515.00 L 418.00,514.00 L 418.00,514.00 L 417.00,513.00 L 417.00,513.00 L 416.00,513.00 L 415.00,512.00 L 415.00,512.00 L 414.00,512.00 L 413.00,511.00 L 413.00,511.00 L 412.00,511.00 L 411.00,510.00 L 411.00,510.00 L 410.00,510.00 L 409.00,510.00 L 408.00,509.00 L 408.00,509.00 L 407.00,509.00 L 406.00,509.00 L 405.00,509.00 L 404.00,508.00 L 404.00,508.00 L 403.00,508.00 L 402.00,508.00 L 401.00,507.00 L 401.00,507.00 L 400.00,507.00 L 399.00,507.00 L 398.00,507.00 L 397.00,506.00 L 397.00,506.00 L 396.00,506.00 L 395.00,506.00 L 394.00,505.00 L 394.00,505.00 L 393.00,505.00 L 392.00,505.00 L 391.00,504.00 L 391.00,504.00 L 390.00,504.00 L 389.00,504.00 L 388.00,503.00 L 388.00,503.00 L 387.00,503.00 L 386.00,502.00 L 386.00,502.00 L 385.00,502.00 L 384.00,501.00 L 384.00,501.00 L 383.00,501.00 L 382.00,500.00 L 382.00,500.00 L 381.00,499.00 L 381.00,499.00 L 380.00,498.00 L 380.00,498.00 L 379.00,498.00 L 378.00,497.00 L 378.00,497.00 L 377.00,496.00 L 377.00,496.00 L 376.00,495.00 L 376.00,494.00 L 376.00,494.00 L 375.00,493.00 L 375.00,493.00 L 374.00,492.00 L 374.00,491.00 L 374.00,491.00 L 373.00,490.00 L 373.00,489.00 L 373.00,489.00 L 372.00,488.00 L 372.00,487.00 L 372.00,486.00 L 372.00,486.00 L 371.00,485.00 L 371.00,484.00 L 371.00,483.00 L 371.00,482.00 L 371.00,481.00 L 371.00,480.00 L 371.00,479.00 L 371.00,478.00 L 371.00,477.00 L 371.00,476.00 L 371.00,475.00 L 371.00,474.00 L 372.00,473.00 L 372.00,473.00 L 372.00,472.00 L 372.00,471.00 L 372.00,470.00 L 373.00,469.00 L 373.00,469.00 L 373.00,468.00 L 374.00,467.00 L 374.00,467.00 L 374.00,466.00 L 375.00,465.00 L 375.00,465.00 L 376.00,464.00 L 376.00,464.00 L 376.00,463.00 L 377.00,462.00 L 377.00,462.00 L 378.00,461.00 L 378.00,461.00 L 379.00,460.00 L 379.00,460.00 L 380.00,459.00 L 380.00,459.00 L 381.00,458.00 L 381.00,458.00 L 382.00,457.00 L 383.00,457.00 L 383.00,457.00 L 384.00,456.00 L 384.00,456.00 L 385.00,455.00 L 386.00,455.00 L 386.00,455.00 L 387.00,454.00 L 388.00,454.00 L 388.00,454.00 L 389.00,453.00 L 390.00,453.00 L 390.00,453.00 L 391.00,452.00 L 392.00,452.00 L 393.00,452.00 L 393.00,452.00 L 394.00,451.00 L 395.00,451.00 L 396.00,451.00 L 397.00,451.00 L 398.00,451.00 L 398.00,451.00 L 399.00,450.00 L 400.00,450.00 L 401.00,450.00 L 402.00,450.00 L 403.00,450.00 L 404.00,450.00 L 405.00,450.00 L 406.00,450.00 L 407.00,450.00 L 408.00,450.00 L 409.00,450.00 L 410.00,451.00 L 410.00,451.00 L 411.00,451.00 L 412.00,451.00 L 413.00,451.00 L 414.00,451.00 L 415.00,451.00 L 416.00,452.00 L 416.00,452.00 L 417.00,452.00 L 418.00,452.00 L 419.00,453.00 L 419.00,453.00 L 420.00,453.00 L 421.00,453.00 L 422.00,454.00 L 422.00,454.00 L 423.00,454.00 L 424.00,455.00 L 424.00,455.00 L 425.00,455.00 L 426.00,456.00 L 426.00,456.00 L 427.00,457.00 L 427.00,457.00 L 428.00,458.00 L 428.00,458.00 L 429.00,458.00 L 430.00,459.00 L 430.00,459.00 L 431.00,460.00 L 431.00,460.00 L 432.00,461.00 L 432.00,461.00 L 433.00,462.00 L 433.00,462.00 L 434.00,463.00 L 434.00,464.00 L 434.00,464.00 L 435.00,465.00 L 435.00,465.00 L 436.00,466.00 L 436.00,467.00 L 436.00,467.00 L 437.00,468.00 L 437.00,469.00 L 437.00,469.00 L 438.00,470.00 L 438.00,471.00 L 438.00,471.00 L 439.00,472.00 L 439.00,473.00 L 439.00,474.00 L 439.00,475.00 L 439.00,476.00 L 439.00,477.00 L 438.00,478.00 L 437.00,478.00 L 437.00,478.00 L 436.00,479.00 L 435.00,479.00 L 434.00,479.00 L 433.00,479.00 L 432.00,479.00 L 431.00,479.00 L 430.00,479.00 L 430.00,479.00 L 429.00,480.00 L 428.00,480.00 L 427.00,480.00 L 426.00,480.00 L 425.00,480.00 L 424.00,480.00 L 423.00,480.00 L 422.00,479.00 L 422.00,479.00 L 421.00,478.00 L 421.00,477.00 L 421.00,476.00 L 421.00,476.00 L 420.00,475.00 L 420.00,475.00 L 419.00,474.00 L 419.00,473.00 L 419.00,473.00 L 418.00,472.00 L 418.00,472.00 L 417.00,471.00 L 417.00,471.00 L 416.00,471.00 L 415.00,470.00 L 415.00,470.00 L 414.00,469.00 L 414.00,469.00 L 413.00,469.00 L 412.00,468.00 L 412.00,468.00 L 411.00,468.00 L 410.00,468.00 L 409.00,467.00 L 409.00,467.00 L 408.00,467.00 L 407.00,467.00 L 406.00,467.00 L 405.00,467.00 L 404.00,467.00 L 403.00,467.00 L 402.00,467.00 L 401.00,467.00 L 400.00,467.00 L 399.00,467.00 L 399.00,467.00 L 398.00,468.00 L 397.00,468.00 L 396.00,468.00 L 396.00,468.00 L 395.00,469.00 L 395.00,469.00 L 394.00,470.00 L 393.00,470.00 L 393.00,470.00 L 392.00,471.00 L 392.00,471.00 L 392.00,472.00 L 391.00,473.00 L 391.00,473.00 L 390.00,474.00 L 390.00,474.00 L 390.00,475.00 L 390.00,476.00 L 389.00,477.00 L 389.00,477.00 L 389.00,478.00 L 389.00,479.00 L 389.00,480.00 L 389.00,480.00 L 390.00,481.00 L 390.00,482.00 L 390.00,483.00 L 390.00,483.00 L 391.00,484.00 L 391.00,485.00 L 391.00,485.00 L 392.00,486.00 L 392.00,486.00 L 393.00,487.00 L 393.00,487.00 L 394.00,487.00 L 395.00,488.00 L 395.00,488.00 L 396.00,488.00 L 397.00,489.00 L 397.00,489.00 L 398.00,489.00 L 399.00,490.00 L 399.00,490.00 L 400.00,490.00 L 401.00,490.00 L 402.00,491.00 L 402.00,491.00 L 403.00,491.00 L 404.00,491.00 L 405.00,492.00 L 405.00,492.00 L 406.00,492.00 L 407.00,492.00 L 408.00,493.00 L 408.00,493.00 L 409.00,493.00 L 410.00,493.00 L 411.00,493.00 L 412.00,494.00 L 412.00,494.00 L 413.00,494.00 L 414.00,494.00 L 415.00,495.00 L 415.00,495.00 L 416.00,495.00 L 417.00,495.00 L 418.00,495.00 L 419.00,496.00 L 419.00,496.00 L 420.00,496.00 L 421.00,496.00 L 422.00,497.00 L 422.00,497.00 L 423.00,497.00 L 424.00,498.00 L 424.00,498.00 L 425.00,498.00 L 426.00,499.00 L 426.00,499.00 L 427.00,499.00 L 428.00,500.00 L 428.00,500.00 L 429.00,500.00 L 430.00,501.00 L 430.00,501.00 L 431.00,502.00 L 431.00,502.00 L 432.00,503.00 L 432.00,503.00 L 433.00,504.00 L 433.00,504.00 L 434.00,505.00 L 434.00,505.00 L 435.00,506.00 L 435.00,506.00 L 436.00,507.00 L 436.00,507.00 L 437.00,508.00 L 437.00,509.00 L 437.00,509.00 L 438.00,510.00 L 438.00,511.00 L 438.00,511.00 L 439.00,512.00 L 439.00,513.00 L 439.00,514.00 L 439.00,514.00 L 440.00,515.00 L 440.00,516.00 L 440.00,517.00 L 440.00,518.00 L 440.00,519.00 L 440.00,520.00 L 440.00,521.00 L 440.00,522.00 L 440.00,523.00 L 440.00,524.00 L 440.00,525.00 L 440.00,526.00 L 440.00,527.00 L 439.00,528.00 L 439.00,528.00 L 439.00,529.00 L 439.00,530.00 L 438.00,531.00 L 438.00,531.00 L 438.00,532.00 L 438.00,533.00 L 437.00,534.00 L 437.00,534.00 L 436.00,535.00 L 436.00,535.00 L 436.00,536.00 L 435.00,537.00 L 435.00,537.00 L 434.00,538.00 L 434.00,538.00 L 433.00,539.00 L 433.00,539.00 L 433.00,540.00 L 432.00,541.00 L 431.00,541.00 L 431.00,541.00 L 430.00,542.00 L 430.00,542.00 L 429.00,543.00 L 429.00,543.00 L 428.00,544.00 L 428.00,544.00 L 427.00,545.00 L 426.00,545.00 L 426.00,545.00 L 425.00,546.00 L 424.00,546.00 L 424.00,546.00 L 423.00,547.00 L 422.00,547.00 L 421.00,547.00 L 421.00,547.00 L 420.00,548.00 L 419.00,548.00 L 418.00,548.00 L 418.00,548.00 L 417.00,549.00 L 416.00,549.00 L 415.00,549.00 L 414.00,549.00 L 413.00,549.00 L 413.00,549.00 L 412.00,550.00 Z" fill="black" stroke="none" /><path d="M 479.00,550.00 L 478.00,550.00 L 477.00,550.00 L 476.00,550.00 L 475.00,550.00 L 474.00,550.00 L 473.00,550.00 L 472.00,550.00 L 471.00,549.00 L 471.00,549.00 L 470.00,549.00 L 469.00,549.00 L 468.00,549.00 L 467.00,548.00 L 467.00,548.00 L 466.00,548.00 L 465.00,548.00 L 464.00,547.00 L 464.00,547.00 L 463.00,547.00 L 462.00,546.00 L 462.00,546.00 L 461.00,545.00 L 461.00,545.00 L 460.00,544.00 L 460.00,544.00 L 459.00,543.00 L 459.00,543.00 L 458.00,542.00 L 458.00,542.00 L 457.00,541.00 L 457.00,541.00 L 456.00,540.00 L 456.00,540.00 L 455.00,539.00 L 455.00,538.00 L 455.00,537.00 L 455.00,537.00 L 454.00,536.00 L 454.00,535.00 L 454.00,534.00 L 454.00,534.00 L 453.00,533.00 L 453.00,532.00 L 453.00,531.00 L 453.00,530.00 L 453.00,529.00 L 453.00,528.00 L 453.00,527.00 L 453.00,526.00 L 453.00,526.00 L 452.00,525.00 L 452.00,524.00 L 452.00,523.00 L 452.00,522.00 L 452.00,521.00 L 453.00,520.00 L 453.00,520.00 L 453.00,519.00 L 453.00,519.00 L 452.00,518.00 L 452.00,517.00 L 453.00,516.00 L 453.00,516.00 L 453.00,516.00 L 452.00,515.00 L 452.00,514.00 L 453.00,513.00 L 453.00,513.00 L 453.00,512.00 L 453.00,512.00 L 452.00,511.00 L 453.00,510.00 L 453.00,510.00 L 453.00,509.00 L 453.00,508.00 L 453.00,507.00 L 453.00,506.00 L 453.00,505.00 L 453.00,504.00 L 453.00,503.00 L 453.00,502.00 L 453.00,501.00 L 453.00,500.00 L 453.00,499.00 L 453.00,498.00 L 453.00,497.00 L 453.00,496.00 L 453.00,495.00 L 453.00,494.00 L 453.00,493.00 L 453.00,493.00 L 452.00,493.00 L 451.00,493.00 L 450.00,493.00 L 449.00,493.00 L 448.00,493.00 L 447.00,493.00 L 446.00,493.00 L 445.00,493.00 L 444.00,493.00 L 443.00,493.00 L 442.00,493.00 L 441.00,492.00 L 441.00,491.00 L 441.00,490.00 L 441.00,489.00 L 441.00,488.00 L 441.00,487.00 L 441.00,486.00 L 441.00,485.00 L 441.00,484.00 L 441.00,483.00 L 441.00,482.00 L 441.00,481.00 L 441.00,480.00 L 441.00,479.00 L 442.00,478.00 L 443.00,478.00 L 444.00,478.00 L 445.00,478.00 L 446.00,478.00 L 447.00,478.00 L 448.00,478.00 L 449.00,478.00 L 450.00,478.00 L 451.00,478.00 L 452.00,478.00 L 453.00,478.00 L 453.00,478.00 L 453.00,477.00 L 453.00,476.00 L 453.00,475.00 L 453.00,474.00 L 453.00,473.00 L 453.00,472.00 L 453.00,471.00 L 453.00,470.00 L 453.00,469.00 L 453.00,468.00 L 453.00,467.00 L 453.00,466.00 L 453.00,465.00 L 454.00,464.00 L 454.00,464.00 L 454.00,463.00 L 454.00,462.00 L 454.00,461.00 L 455.00,460.00 L 456.00,460.00 L 457.00,460.00 L 458.00,460.00 L 459.00,460.00 L 460.00,460.00 L 461.00,460.00 L 462.00,460.00 L 463.00,460.00 L 464.00,460.00 L 465.00,460.00 L 466.00,460.00 L 467.00,460.00 L 468.00,460.00 L 469.00,460.00 L 470.00,461.00 L 470.00,462.00 L 470.00,463.00 L 470.00,464.00 L 470.00,465.00 L 470.00,466.00 L 470.00,467.00 L 470.00,468.00 L 470.00,469.00 L 470.00,469.00 L 471.00,470.00 L 471.00,471.00 L 471.00,472.00 L 471.00,473.00 L 471.00,474.00 L 471.00,475.00 L 471.00,476.00 L 471.00,477.00 L 471.00,478.00 L 471.00,478.00 L 472.00,478.00 L 473.00,478.00 L 474.00,478.00 L 475.00,478.00 L 476.00,478.00 L 477.00,478.00 L 478.00,478.00 L 479.00,478.00 L 480.00,478.00 L 481.00,478.00 L 482.00,478.00 L 483.00,478.00 L 484.00,478.00 L 485.00,478.00 L 486.00,478.00 L 487.00,479.00 L 487.00,480.00 L 487.00,481.00 L 487.00,482.00 L 487.00,483.00 L 487.00,484.00 L 487.00,485.00 L 487.00,486.00 L 487.00,487.00 L 487.00,488.00 L 487.00,489.00 L 487.00,490.00 L 487.00,491.00 L 487.00,492.00 L 486.00,493.00 L 485.00,493.00 L 484.00,493.00 L 483.00,493.00 L 482.00,493.00 L 481.00,493.00 L 480.00,493.00 L 479.00,493.00 L 478.00,493.00 L 477.00,493.00 L 476.00,493.00 L 475.00,493.00 L 474.00,493.00 L 473.00,493.00 L 472.00,493.00 L 471.00,493.00 L 471.00,493.00 L 471.00,494.00 L 471.00,495.00 L 471.00,496.00 L 471.00,497.00 L 471.00,498.00 L 471.00,499.00 L 471.00,500.00 L 471.00,501.00 L 471.00,502.00 L 471.00,503.00 L 471.00,504.00 L 471.00,505.00 L 471.00,506.00 L 471.00,507.00 L 471.00,508.00 L 471.00,509.00 L 471.00,510.00 L 471.00,511.00 L 471.00,512.00 L 471.00,513.00 L 471.00,514.00 L 471.00,515.00 L 471.00,516.00 L 471.00,517.00 L 471.00,518.00 L 471.00,519.00 L 471.00,520.00 L 471.00,521.00 L 471.00,522.00 L 471.00,523.00 L 471.00,524.00 L 471.00,525.00 L 471.00,526.00 L 471.00,527.00 L 471.00,528.00 L 471.00,528.00 L 472.00,529.00 L 472.00,530.00 L 472.00,530.00 L 473.00,531.00 L 473.00,531.00 L 474.00,532.00 L 474.00,532.00 L 475.00,532.00 L 476.00,533.00 L 476.00,533.00 L 477.00,533.00 L 478.00,533.00 L 479.00,533.00 L 480.00,533.00 L 481.00,533.00 L 482.00,533.00 L 483.00,533.00 L 484.00,533.00 L 485.00,533.00 L 486.00,533.00 L 487.00,533.00 L 488.00,534.00 L 488.00,535.00 L 488.00,536.00 L 488.00,537.00 L 488.00,538.00 L 488.00,539.00 L 488.00,540.00 L 488.00,541.00 L 488.00,542.00 L 488.00,543.00 L 488.00,544.00 L 488.00,545.00 L 488.00,546.00 L 488.00,547.00 L 487.00,548.00 L 487.00,548.00 L 486.00,549.00 L 485.00,549.00 L 484.00,549.00 L 483.00,549.00 L 482.00,549.00 L 481.00,549.00 L 480.00,549.00 L 480.00,549.00 L 479.00,550.00 Z" fill="black" stroke="none" /><path d="M 263.00,479.00 L 264.00,478.00 L 264.00,478.00 L 265.00,477.00 L 266.00,477.00 L 266.00,477.00 L 267.00,476.00 L 268.00,476.00 L 268.00,476.00 L 269.00,475.00 L 269.00,475.00 L 270.00,474.00 L 271.00,474.00 L 271.00,474.00 L 271.00,473.00 L 271.00,473.00 L 270.00,473.00 L 269.00,472.00 L 269.00,472.00 L 268.00,471.00 L 268.00,471.00 L 267.00,471.00 L 266.00,470.00 L 266.00,470.00 L 265.00,470.00 L 265.00,470.00 L 265.00,471.00 L 264.00,472.00 L 264.00,472.00 L 264.00,473.00 L 264.00,474.00 L 264.00,475.00 L 263.00,476.00 L 263.00,476.00 L 263.00,477.00 L 263.00,478.00 L 262.00,479.00 L 262.00,479.00 L 262.00,479.00 L 263.00,479.00 L 263.00,479.00 Z" fill="black" stroke="none" /><path d="M 216.00,488.00 L 215.00,488.00 L 214.00,488.00 L 213.00,488.00 L 212.00,488.00 L 211.00,488.00 L 210.00,488.00 L 209.00,488.00 L 208.00,488.00 L 207.00,488.00 L 206.00,488.00 L 205.00,488.00 L 204.00,488.00 L 203.00,488.00 L 202.00,488.00 L 201.00,488.00 L 200.00,488.00 L 199.00,488.00 L 198.00,488.00 L 197.00,488.00 L 196.00,488.00 L 195.00,488.00 L 194.00,488.00 L 193.00,488.00 L 192.00,488.00 L 191.00,488.00 L 190.00,488.00 L 189.00,488.00 L 188.00,488.00 L 187.00,488.00 L 186.00,488.00 L 185.00,488.00 L 184.00,488.00 L 183.00,488.00 L 182.00,488.00 L 181.00,488.00 L 180.00,488.00 L 179.00,488.00 L 178.00,488.00 L 177.00,488.00 L 176.00,488.00 L 175.00,488.00 L 174.00,488.00 L 173.00,488.00 L 172.00,488.00 L 171.00,487.00 L 171.00,487.00 L 170.00,486.00 L 170.00,486.00 L 169.00,485.00 L 169.00,485.00 L 168.00,484.00 L 168.00,483.00 L 168.00,482.00 L 168.00,481.00 L 168.00,480.00 L 169.00,479.00 L 169.00,479.00 L 170.00,478.00 L 170.00,478.00 L 171.00,477.00 L 171.00,477.00 L 172.00,476.00 L 173.00,476.00 L 174.00,476.00 L 175.00,476.00 L 176.00,476.00 L 177.00,476.00 L 178.00,476.00 L 179.00,476.00 L 180.00,476.00 L 181.00,476.00 L 182.00,476.00 L 183.00,476.00 L 184.00,476.00 L 185.00,476.00 L 186.00,476.00 L 187.00,476.00 L 188.00,476.00 L 189.00,476.00 L 190.00,476.00 L 191.00,476.00 L 192.00,476.00 L 193.00,476.00 L 194.00,476.00 L 195.00,476.00 L 196.00,476.00 L 197.00,476.00 L 198.00,476.00 L 199.00,476.00 L 200.00,476.00 L 201.00,476.00 L 202.00,476.00 L 203.00,476.00 L 204.00,476.00 L 205.00,476.00 L 206.00,476.00 L 207.00,476.00 L 208.00,476.00 L 209.00,476.00 L 210.00,476.00 L 211.00,476.00 L 212.00,476.00 L 213.00,476.00 L 214.00,476.00 L 215.00,476.00 L 216.00,476.00 L 217.00,477.00 L 217.00,477.00 L 218.00,477.00 L 219.00,478.00 L 219.00,479.00 L 219.00,479.00 L 220.00,480.00 L 220.00,481.00 L 220.00,482.00 L 220.00,483.00 L 220.00,484.00 L 219.00,485.00 L 219.00,485.00 L 218.00,486.00 L 218.00,486.00 L 217.00,487.00 L 217.00,487.00 L 216.00,488.00 Z" fill="black" stroke="none" /><path d="M 534.00,550.00 L 533.00,550.00 L 532.00,550.00 L 531.00,550.00 L 530.00,550.00 L 529.00,550.00 L 528.00,550.00 L 527.00,550.00 L 526.00,550.00 L 525.00,550.00 L 524.00,550.00 L 523.00,550.00 L 522.00,550.00 L 521.00,550.00 L 520.00,550.00 L 519.00,549.00 L 519.00,549.00 L 518.00,549.00 L 517.00,549.00 L 516.00,549.00 L 515.00,548.00 L 515.00,548.00 L 514.00,548.00 L 513.00,548.00 L 512.00,547.00 L 512.00,547.00 L 511.00,547.00 L 510.00,546.00 L 510.00,546.00 L 509.00,546.00 L 508.00,545.00 L 508.00,545.00 L 507.00,545.00 L 506.00,544.00 L 506.00,544.00 L 505.00,543.00 L 505.00,543.00 L 504.00,543.00 L 503.00,542.00 L 503.00,542.00 L 502.00,541.00 L 502.00,541.00 L 501.00,540.00 L 501.00,540.00 L 500.00,539.00 L 500.00,539.00 L 499.00,538.00 L 499.00,538.00 L 498.00,537.00 L 498.00,536.00 L 498.00,536.00 L 497.00,535.00 L 497.00,535.00 L 496.00,534.00 L 496.00,533.00 L 496.00,533.00 L 495.00,532.00 L 495.00,531.00 L 495.00,531.00 L 494.00,530.00 L 494.00,529.00 L 494.00,529.00 L 493.00,528.00 L 493.00,527.00 L 493.00,526.00 L 493.00,526.00 L 492.00,525.00 L 492.00,524.00 L 492.00,523.00 L 492.00,522.00 L 492.00,522.00 L 491.00,521.00 L 491.00,520.00 L 491.00,519.00 L 491.00,518.00 L 491.00,517.00 L 491.00,516.00 L 491.00,515.00 L 491.00,514.00 L 491.00,513.00 L 491.00,512.00 L 491.00,511.00 L 491.00,510.00 L 491.00,509.00 L 491.00,508.00 L 491.00,507.00 L 491.00,506.00 L 491.00,505.00 L 492.00,504.00 L 492.00,504.00 L 492.00,503.00 L 492.00,502.00 L 492.00,501.00 L 493.00,500.00 L 493.00,500.00 L 493.00,499.00 L 493.00,498.00 L 494.00,497.00 L 494.00,497.00 L 494.00,496.00 L 495.00,495.00 L 495.00,495.00 L 495.00,494.00 L 496.00,493.00 L 496.00,493.00 L 496.00,492.00 L 497.00,491.00 L 497.00,491.00 L 498.00,490.00 L 498.00,490.00 L 499.00,489.00 L 499.00,489.00 L 499.00,488.00 L 500.00,487.00 L 500.00,487.00 L 501.00,486.00 L 501.00,486.00 L 502.00,485.00 L 503.00,485.00 L 503.00,485.00 L 504.00,484.00 L 504.00,484.00 L 505.00,483.00 L 505.00,483.00 L 506.00,482.00 L 507.00,482.00 L 507.00,482.00 L 508.00,481.00 L 508.00,481.00 L 509.00,480.00 L 510.00,480.00 L 510.00,480.00 L 511.00,479.00 L 512.00,479.00 L 513.00,479.00 L 513.00,479.00 L 514.00,478.00 L 515.00,478.00 L 516.00,478.00 L 516.00,478.00 L 517.00,477.00 L 518.00,477.00 L 519.00,477.00 L 520.00,477.00 L 521.00,477.00 L 521.00,477.00 L 522.00,476.00 L 523.00,476.00 L 524.00,476.00 L 525.00,476.00 L 526.00,476.00 L 527.00,476.00 L 528.00,476.00 L 529.00,476.00 L 530.00,476.00 L 531.00,476.00 L 532.00,477.00 L 532.00,477.00 L 533.00,477.00 L 534.00,477.00 L 535.00,477.00 L 536.00,477.00 L 537.00,478.00 L 537.00,478.00 L 538.00,478.00 L 539.00,478.00 L 540.00,479.00 L 540.00,479.00 L 541.00,479.00 L 542.00,479.00 L 543.00,480.00 L 543.00,480.00 L 544.00,480.00 L 545.00,481.00 L 545.00,481.00 L 546.00,482.00 L 546.00,482.00 L 547.00,482.00 L 548.00,483.00 L 548.00,483.00 L 549.00,484.00 L 549.00,484.00 L 550.00,484.00 L 551.00,485.00 L 551.00,485.00 L 552.00,486.00 L 552.00,486.00 L 553.00,487.00 L 553.00,487.00 L 554.00,488.00 L 554.00,488.00 L 555.00,489.00 L 555.00,490.00 L 555.00,490.00 L 556.00,491.00 L 556.00,491.00 L 557.00,492.00 L 557.00,493.00 L 557.00,493.00 L 558.00,494.00 L 558.00,494.00 L 559.00,495.00 L 559.00,496.00 L 559.00,497.00 L 559.00,497.00 L 560.00,498.00 L 560.00,499.00 L 560.00,499.00 L 561.00,500.00 L 561.00,501.00 L 561.00,502.00 L 561.00,503.00 L 561.00,503.00 L 562.00,504.00 L 562.00,505.00 L 562.00,506.00 L 562.00,507.00 L 562.00,508.00 L 562.00,509.00 L 562.00,509.00 L 563.00,510.00 L 563.00,511.00 L 563.00,512.00 L 563.00,513.00 L 563.00,514.00 L 563.00,515.00 L 562.00,516.00 L 562.00,516.00 L 562.00,517.00 L 562.00,518.00 L 562.00,519.00 L 562.00,520.00 L 562.00,521.00 L 562.00,522.00 L 562.00,523.00 L 561.00,524.00 L 561.00,524.00 L 561.00,525.00 L 561.00,526.00 L 560.00,527.00 L 560.00,527.00 L 560.00,528.00 L 560.00,529.00 L 559.00,530.00 L 559.00,530.00 L 559.00,531.00 L 558.00,532.00 L 558.00,532.00 L 558.00,533.00 L 557.00,534.00 L 557.00,534.00 L 557.00,535.00 L 556.00,536.00 L 556.00,536.00 L 555.00,537.00 L 555.00,537.00 L 554.00,538.00 L 554.00,538.00 L 554.00,539.00 L 553.00,540.00 L 553.00,540.00 L 552.00,541.00 L 552.00,541.00 L 551.00,542.00 L 550.00,542.00 L 550.00,542.00 L 549.00,543.00 L 549.00,543.00 L 548.00,544.00 L 548.00,544.00 L 547.00,545.00 L 546.00,545.00 L 546.00,545.00 L 545.00,546.00 L 544.00,546.00 L 544.00,546.00 L 543.00,547.00 L 542.00,547.00 L 542.00,547.00 L 541.00,548.00 L 540.00,548.00 L 539.00,548.00 L 539.00,548.00 L 538.00,549.00 L 537.00,549.00 L 536.00,549.00 L 535.00,549.00 L 535.00,549.00 L 534.00,550.00 Z" fill="black" stroke="none" /><path d="M 589.00,548.00 L 588.00,548.00 L 587.00,548.00 L 586.00,548.00 L 585.00,548.00 L 584.00,548.00 L 583.00,548.00 L 582.00,548.00 L 581.00,548.00 L 580.00,548.00 L 579.00,548.00 L 578.00,548.00 L 577.00,548.00 L 576.00,548.00 L 575.00,548.00 L 574.00,548.00 L 573.00,548.00 L 572.00,548.00 L 571.00,547.00 L 571.00,546.00 L 571.00,545.00 L 571.00,544.00 L 571.00,543.00 L 571.00,542.00 L 571.00,541.00 L 571.00,540.00 L 571.00,539.00 L 571.00,538.00 L 571.00,537.00 L 571.00,536.00 L 571.00,535.00 L 571.00,534.00 L 571.00,533.00 L 571.00,532.00 L 571.00,531.00 L 571.00,530.00 L 571.00,529.00 L 571.00,528.00 L 571.00,527.00 L 571.00,526.00 L 571.00,525.00 L 571.00,524.00 L 571.00,523.00 L 571.00,522.00 L 571.00,521.00 L 571.00,520.00 L 571.00,519.00 L 571.00,518.00 L 571.00,517.00 L 571.00,516.00 L 571.00,515.00 L 571.00,514.00 L 571.00,513.00 L 571.00,512.00 L 571.00,511.00 L 571.00,510.00 L 571.00,509.00 L 571.00,508.00 L 571.00,507.00 L 571.00,506.00 L 571.00,505.00 L 571.00,504.00 L 571.00,503.00 L 571.00,502.00 L 571.00,501.00 L 571.00,500.00 L 571.00,499.00 L 571.00,498.00 L 571.00,497.00 L 571.00,496.00 L 571.00,495.00 L 571.00,494.00 L 571.00,493.00 L 571.00,492.00 L 571.00,491.00 L 571.00,490.00 L 571.00,489.00 L 571.00,488.00 L 571.00,487.00 L 571.00,486.00 L 571.00,485.00 L 571.00,484.00 L 571.00,483.00 L 571.00,482.00 L 571.00,481.00 L 571.00,480.00 L 571.00,479.00 L 572.00,478.00 L 573.00,478.00 L 574.00,478.00 L 575.00,478.00 L 576.00,478.00 L 577.00,478.00 L 578.00,478.00 L 579.00,478.00 L 580.00,478.00 L 581.00,478.00 L 582.00,478.00 L 583.00,478.00 L 584.00,478.00 L 585.00,478.00 L 586.00,478.00 L 587.00,478.00 L 588.00,478.00 L 589.00,478.00 L 590.00,479.00 L 590.00,480.00 L 590.00,481.00 L 590.00,482.00 L 590.00,483.00 L 590.00,484.00 L 590.00,485.00 L 589.00,486.00 L 589.00,486.00 L 589.00,486.00 L 589.00,486.00 L 590.00,485.00 L 590.00,485.00 L 591.00,484.00 L 591.00,484.00 L 592.00,483.00 L 592.00,483.00 L 593.00,482.00 L 593.00,482.00 L 594.00,481.00 L 594.00,481.00 L 595.00,480.00 L 595.00,480.00 L 596.00,479.00 L 597.00,479.00 L 597.00,479.00 L 598.00,478.00 L 599.00,478.00 L 600.00,478.00 L 600.00,478.00 L 601.00,477.00 L 602.00,477.00 L 603.00,477.00 L 604.00,477.00 L 605.00,477.00 L 606.00,477.00 L 607.00,477.00 L 607.00,477.00 L 608.00,476.00 L 609.00,477.00 L 609.00,477.00 L 610.00,477.00 L 611.00,477.00 L 612.00,478.00 L 612.00,479.00 L 612.00,480.00 L 612.00,481.00 L 612.00,482.00 L 612.00,483.00 L 612.00,484.00 L 612.00,485.00 L 612.00,486.00 L 612.00,487.00 L 612.00,488.00 L 612.00,489.00 L 612.00,490.00 L 612.00,491.00 L 612.00,492.00 L 612.00,493.00 L 612.00,494.00 L 611.00,495.00 L 610.00,495.00 L 609.00,495.00 L 608.00,495.00 L 607.00,495.00 L 606.00,495.00 L 605.00,495.00 L 604.00,495.00 L 603.00,495.00 L 602.00,495.00 L 602.00,495.00 L 601.00,496.00 L 600.00,496.00 L 599.00,496.00 L 599.00,496.00 L 598.00,497.00 L 597.00,497.00 L 597.00,497.00 L 596.00,498.00 L 595.00,498.00 L 595.00,498.00 L 594.00,499.00 L 594.00,499.00 L 593.00,500.00 L 593.00,500.00 L 593.00,501.00 L 592.00,502.00 L 592.00,502.00 L 592.00,503.00 L 591.00,504.00 L 591.00,504.00 L 591.00,505.00 L 590.00,506.00 L 590.00,506.00 L 590.00,507.00 L 590.00,508.00 L 590.00,509.00 L 590.00,510.00 L 590.00,511.00 L 590.00,512.00 L 590.00,513.00 L 590.00,514.00 L 590.00,515.00 L 590.00,516.00 L 590.00,517.00 L 590.00,518.00 L 590.00,519.00 L 590.00,520.00 L 590.00,521.00 L 590.00,522.00 L 590.00,523.00 L 590.00,524.00 L 590.00,525.00 L 590.00,526.00 L 590.00,527.00 L 590.00,528.00 L 590.00,529.00 L 590.00,530.00 L 590.00,531.00 L 590.00,532.00 L 590.00,533.00 L 590.00,534.00 L 590.00,535.00 L 590.00,536.00 L 590.00,537.00 L 590.00,538.00 L 590.00,539.00 L 590.00,540.00 L 590.00,541.00 L 590.00,542.00 L 590.00,543.00 L 590.00,544.00 L 590.00,545.00 L 590.00,546.00 L 590.00,547.00 L 589.00,548.00 Z" fill="black" stroke="none" /><path d="M 813.00,548.00 L 812.00,548.00 L 811.00,548.00 L 810.00,548.00 L 809.00,548.00 L 808.00,548.00 L 807.00,548.00 L 806.00,548.00 L 805.00,548.00 L 804.00,548.00 L 803.00,548.00 L 802.00,548.00 L 801.00,548.00 L 800.00,548.00 L 799.00,548.00 L 798.00,548.00 L 797.00,548.00 L 796.00,547.00 L 796.00,546.00 L 796.00,545.00 L 796.00,544.00 L 796.00,543.00 L 796.00,542.00 L 796.00,541.00 L 796.00,540.00 L 796.00,539.00 L 796.00,538.00 L 796.00,537.00 L 796.00,536.00 L 796.00,535.00 L 796.00,534.00 L 796.00,533.00 L 796.00,532.00 L 796.00,531.00 L 796.00,530.00 L 796.00,529.00 L 796.00,528.00 L 796.00,527.00 L 796.00,526.00 L 796.00,525.00 L 796.00,524.00 L 796.00,523.00 L 796.00,522.00 L 796.00,521.00 L 796.00,520.00 L 796.00,519.00 L 796.00,518.00 L 796.00,517.00 L 796.00,516.00 L 796.00,515.00 L 796.00,514.00 L 796.00,513.00 L 796.00,512.00 L 796.00,511.00 L 796.00,510.00 L 796.00,509.00 L 796.00,508.00 L 796.00,507.00 L 796.00,506.00 L 796.00,506.00 L 795.00,505.00 L 795.00,504.00 L 795.00,503.00 L 795.00,502.00 L 795.00,501.00 L 795.00,501.00 L 794.00,500.00 L 794.00,499.00 L 794.00,499.00 L 793.00,498.00 L 793.00,497.00 L 793.00,497.00 L 792.00,496.00 L 792.00,496.00 L 791.00,495.00 L 791.00,495.00 L 790.00,495.00 L 789.00,494.00 L 789.00,494.00 L 788.00,494.00 L 787.00,493.00 L 787.00,493.00 L 786.00,493.00 L 785.00,493.00 L 784.00,493.00 L 783.00,493.00 L 782.00,493.00 L 781.00,493.00 L 780.00,493.00 L 779.00,493.00 L 779.00,493.00 L 778.00,494.00 L 777.00,494.00 L 776.00,494.00 L 776.00,494.00 L 775.00,495.00 L 774.00,495.00 L 774.00,495.00 L 773.00,496.00 L 773.00,496.00 L 772.00,497.00 L 772.00,497.00 L 772.00,498.00 L 771.00,499.00 L 771.00,499.00 L 770.00,500.00 L 770.00,500.00 L 770.00,501.00 L 770.00,502.00 L 770.00,503.00 L 769.00,504.00 L 769.00,504.00 L 769.00,505.00 L 769.00,506.00 L 769.00,507.00 L 769.00,508.00 L 769.00,509.00 L 769.00,510.00 L 769.00,511.00 L 769.00,512.00 L 769.00,513.00 L 769.00,514.00 L 769.00,515.00 L 769.00,516.00 L 769.00,517.00 L 769.00,518.00 L 769.00,519.00 L 769.00,520.00 L 769.00,521.00 L 769.00,522.00 L 769.00,523.00 L 769.00,524.00 L 769.00,525.00 L 769.00,526.00 L 769.00,527.00 L 769.00,528.00 L 769.00,529.00 L 769.00,530.00 L 769.00,531.00 L 769.00,532.00 L 769.00,533.00 L 769.00,534.00 L 769.00,535.00 L 769.00,536.00 L 769.00,537.00 L 769.00,538.00 L 769.00,539.00 L 769.00,540.00 L 769.00,541.00 L 769.00,542.00 L 769.00,543.00 L 769.00,544.00 L 769.00,545.00 L 769.00,546.00 L 769.00,547.00 L 768.00,548.00 L 767.00,548.00 L 766.00,548.00 L 765.00,548.00 L 764.00,548.00 L 763.00,548.00 L 762.00,548.00 L 761.00,548.00 L 760.00,548.00 L 759.00,548.00 L 758.00,548.00 L 757.00,548.00 L 756.00,548.00 L 755.00,548.00 L 754.00,548.00 L 753.00,548.00 L 752.00,548.00 L 751.00,547.00 L 751.00,546.00 L 751.00,545.00 L 751.00,544.00 L 751.00,543.00 L 751.00,542.00 L 751.00,541.00 L 751.00,540.00 L 751.00,539.00 L 751.00,538.00 L 751.00,537.00 L 751.00,536.00 L 751.00,535.00 L 751.00,534.00 L 751.00,533.00 L 751.00,532.00 L 751.00,531.00 L 751.00,530.00 L 751.00,529.00 L 751.00,528.00 L 751.00,527.00 L 751.00,526.00 L 751.00,525.00 L 751.00,524.00 L 751.00,523.00 L 751.00,522.00 L 751.00,521.00 L 751.00,520.00 L 751.00,519.00 L 751.00,518.00 L 751.00,517.00 L 751.00,516.00 L 751.00,515.00 L 751.00,514.00 L 751.00,513.00 L 751.00,512.00 L 751.00,511.00 L 751.00,510.00 L 751.00,509.00 L 751.00,508.00 L 751.00,507.00 L 751.00,506.00 L 751.00,505.00 L 751.00,504.00 L 751.00,503.00 L 751.00,502.00 L 751.00,501.00 L 751.00,500.00 L 751.00,499.00 L 751.00,498.00 L 751.00,497.00 L 751.00,496.00 L 751.00,495.00 L 751.00,494.00 L 751.00,493.00 L 751.00,492.00 L 751.00,491.00 L 751.00,490.00 L 751.00,489.00 L 751.00,488.00 L 751.00,487.00 L 751.00,486.00 L 751.00,485.00 L 751.00,484.00 L 751.00,483.00 L 751.00,482.00 L 751.00,481.00 L 751.00,480.00 L 751.00,479.00 L 752.00,478.00 L 753.00,478.00 L 754.00,478.00 L 755.00,478.00 L 756.00,478.00 L 757.00,478.00 L 758.00,478.00 L 759.00,478.00 L 760.00,478.00 L 761.00,478.00 L 762.00,478.00 L 763.00,478.00 L 764.00,478.00 L 765.00,478.00 L 766.00,478.00 L 767.00,478.00 L 768.00,478.00 L 769.00,479.00 L 769.00,480.00 L 769.00,481.00 L 769.00,482.00 L 769.00,483.00 L 769.00,484.00 L 769.00,485.00 L 769.00,485.00 L 769.00,485.00 L 770.00,484.00 L 770.00,484.00 L 771.00,483.00 L 771.00,483.00 L 772.00,482.00 L 772.00,482.00 L 773.00,481.00 L 773.00,481.00 L 774.00,480.00 L 775.00,480.00 L 775.00,480.00 L 776.00,479.00 L 777.00,479.00 L 777.00,479.00 L 778.00,478.00 L 779.00,478.00 L 780.00,478.00 L 780.00,478.00 L 781.00,477.00 L 782.00,477.00 L 783.00,477.00 L 784.00,477.00 L 785.00,477.00 L 785.00,477.00 L 786.00,476.00 L 787.00,476.00 L 788.00,476.00 L 789.00,476.00 L 790.00,476.00 L 791.00,477.00 L 791.00,477.00 L 792.00,477.00 L 793.00,477.00 L 794.00,477.00 L 795.00,477.00 L 796.00,478.00 L 796.00,478.00 L 797.00,478.00 L 798.00,478.00 L 799.00,479.00 L 799.00,479.00 L 800.00,479.00 L 801.00,480.00 L 801.00,480.00 L 802.00,480.00 L 803.00,481.00 L 803.00,481.00 L 804.00,482.00 L 804.00,482.00 L 805.00,483.00 L 805.00,483.00 L 806.00,483.00 L 807.00,484.00 L 807.00,485.00 L 807.00,485.00 L 808.00,486.00 L 808.00,486.00 L 809.00,487.00 L 809.00,487.00 L 810.00,488.00 L 810.00,489.00 L 810.00,489.00 L 811.00,490.00 L 811.00,491.00 L 811.00,491.00 L 812.00,492.00 L 812.00,493.00 L 812.00,494.00 L 812.00,494.00 L 813.00,495.00 L 813.00,496.00 L 813.00,497.00 L 813.00,498.00 L 813.00,498.00 L 814.00,499.00 L 814.00,500.00 L 814.00,501.00 L 814.00,502.00 L 814.00,503.00 L 814.00,504.00 L 814.00,505.00 L 814.00,506.00 L 814.00,507.00 L 814.00,508.00 L 814.00,509.00 L 814.00,510.00 L 814.00,511.00 L 814.00,512.00 L 814.00,513.00 L 814.00,514.00 L 814.00,515.00 L 814.00,516.00 L 814.00,517.00 L 814.00,518.00 L 814.00,519.00 L 814.00,520.00 L 814.00,521.00 L 814.00,522.00 L 814.00,523.00 L 814.00,524.00 L 814.00,525.00 L 814.00,526.00 L 814.00,527.00 L 814.00,528.00 L 814.00,529.00 L 814.00,530.00 L 814.00,531.00 L 814.00,532.00 L 814.00,533.00 L 814.00,534.00 L 814.00,535.00 L 814.00,536.00 L 814.00,537.00 L 814.00,538.00 L 814.00,539.00 L 814.00,540.00 L 814.00,541.00 L 814.00,542.00 L 814.00,543.00 L 814.00,544.00 L 814.00,545.00 L 814.00,546.00 L 814.00,547.00 L 813.00,548.00 Z" fill="black" stroke="none" /><path d="M 864.00,550.00 L 863.00,550.00 L 862.00,550.00 L 861.00,550.00 L 860.00,550.00 L 859.00,550.00 L 858.00,550.00 L 857.00,550.00 L 856.00,550.00 L 855.00,550.00 L 854.00,550.00 L 853.00,550.00 L 852.00,550.00 L 851.00,550.00 L 850.00,550.00 L 849.00,550.00 L 848.00,550.00 L 847.00,549.00 L 847.00,549.00 L 846.00,549.00 L 845.00,549.00 L 844.00,548.00 L 844.00,548.00 L 843.00,548.00 L 842.00,548.00 L 841.00,547.00 L 841.00,547.00 L 840.00,547.00 L 839.00,546.00 L 839.00,546.00 L 838.00,545.00 L 838.00,545.00 L 837.00,545.00 L 836.00,544.00 L 836.00,544.00 L 835.00,543.00 L 835.00,543.00 L 834.00,543.00 L 833.00,542.00 L 833.00,542.00 L 832.00,541.00 L 832.00,541.00 L 831.00,540.00 L 831.00,540.00 L 830.00,539.00 L 830.00,538.00 L 830.00,538.00 L 829.00,537.00 L 829.00,537.00 L 828.00,536.00 L 828.00,536.00 L 827.00,535.00 L 827.00,534.00 L 827.00,534.00 L 826.00,533.00 L 826.00,532.00 L 826.00,532.00 L 825.00,531.00 L 825.00,530.00 L 825.00,530.00 L 824.00,529.00 L 824.00,528.00 L 824.00,527.00 L 824.00,527.00 L 823.00,526.00 L 823.00,525.00 L 823.00,524.00 L 823.00,524.00 L 822.00,523.00 L 822.00,522.00 L 822.00,521.00 L 822.00,520.00 L 822.00,519.00 L 822.00,518.00 L 822.00,517.00 L 822.00,517.00 L 821.00,516.00 L 821.00,515.00 L 821.00,514.00 L 822.00,513.00 L 822.00,513.00 L 822.00,513.00 L 821.00,512.00 L 821.00,511.00 L 822.00,510.00 L 822.00,510.00 L 822.00,509.00 L 822.00,508.00 L 822.00,507.00 L 822.00,506.00 L 822.00,505.00 L 822.00,504.00 L 823.00,503.00 L 823.00,503.00 L 823.00,502.00 L 823.00,501.00 L 823.00,500.00 L 824.00,499.00 L 824.00,499.00 L 824.00,498.00 L 825.00,497.00 L 825.00,497.00 L 825.00,496.00 L 826.00,495.00 L 826.00,495.00 L 826.00,494.00 L 827.00,493.00 L 827.00,493.00 L 827.00,492.00 L 828.00,491.00 L 828.00,491.00 L 829.00,490.00 L 829.00,490.00 L 830.00,489.00 L 830.00,489.00 L 831.00,488.00 L 831.00,488.00 L 831.00,487.00 L 832.00,486.00 L 832.00,486.00 L 833.00,485.00 L 834.00,485.00 L 834.00,485.00 L 835.00,484.00 L 835.00,484.00 L 836.00,483.00 L 836.00,483.00 L 837.00,482.00 L 838.00,482.00 L 838.00,482.00 L 839.00,481.00 L 839.00,481.00 L 840.00,480.00 L 841.00,480.00 L 841.00,480.00 L 842.00,479.00 L 843.00,479.00 L 844.00,479.00 L 844.00,479.00 L 845.00,478.00 L 846.00,478.00 L 847.00,478.00 L 847.00,478.00 L 848.00,477.00 L 849.00,477.00 L 850.00,477.00 L 851.00,477.00 L 852.00,477.00 L 853.00,477.00 L 854.00,477.00 L 855.00,477.00 L 856.00,477.00 L 857.00,477.00 L 858.00,477.00 L 859.00,477.00 L 860.00,477.00 L 861.00,477.00 L 862.00,477.00 L 863.00,477.00 L 864.00,478.00 L 864.00,478.00 L 865.00,478.00 L 866.00,478.00 L 867.00,479.00 L 867.00,479.00 L 868.00,479.00 L 869.00,479.00 L 870.00,480.00 L 870.00,480.00 L 871.00,480.00 L 872.00,481.00 L 872.00,481.00 L 873.00,482.00 L 873.00,482.00 L 874.00,482.00 L 875.00,483.00 L 875.00,483.00 L 876.00,484.00 L 876.00,484.00 L 877.00,485.00 L 877.00,485.00 L 878.00,485.00 L 879.00,486.00 L 879.00,486.00 L 880.00,487.00 L 880.00,488.00 L 880.00,488.00 L 881.00,489.00 L 881.00,489.00 L 882.00,490.00 L 882.00,490.00 L 883.00,491.00 L 883.00,492.00 L 883.00,492.00 L 884.00,493.00 L 884.00,494.00 L 884.00,494.00 L 885.00,495.00 L 885.00,496.00 L 885.00,496.00 L 886.00,497.00 L 886.00,498.00 L 886.00,498.00 L 887.00,499.00 L 887.00,500.00 L 887.00,501.00 L 887.00,501.00 L 888.00,502.00 L 888.00,503.00 L 888.00,504.00 L 888.00,505.00 L 888.00,506.00 L 888.00,507.00 L 888.00,507.00 L 889.00,508.00 L 889.00,509.00 L 889.00,510.00 L 889.00,511.00 L 889.00,512.00 L 889.00,513.00 L 889.00,514.00 L 889.00,515.00 L 889.00,516.00 L 889.00,517.00 L 889.00,518.00 L 888.00,519.00 L 887.00,519.00 L 886.00,519.00 L 885.00,519.00 L 884.00,519.00 L 883.00,519.00 L 882.00,519.00 L 881.00,519.00 L 880.00,519.00 L 879.00,519.00 L 878.00,519.00 L 877.00,519.00 L 876.00,519.00 L 875.00,519.00 L 874.00,519.00 L 873.00,519.00 L 872.00,519.00 L 871.00,519.00 L 870.00,519.00 L 869.00,519.00 L 868.00,519.00 L 867.00,519.00 L 866.00,519.00 L 865.00,519.00 L 864.00,519.00 L 863.00,519.00 L 862.00,519.00 L 861.00,519.00 L 860.00,519.00 L 859.00,519.00 L 858.00,519.00 L 857.00,519.00 L 856.00,519.00 L 855.00,519.00 L 854.00,519.00 L 853.00,519.00 L 852.00,519.00 L 851.00,519.00 L 850.00,519.00 L 849.00,519.00 L 848.00,519.00 L 847.00,519.00 L 846.00,519.00 L 845.00,519.00 L 844.00,519.00 L 843.00,519.00 L 842.00,519.00 L 841.00,519.00 L 840.00,519.00 L 839.00,519.00 L 839.00,519.00 L 839.00,520.00 L 839.00,520.00 L 840.00,521.00 L 840.00,522.00 L 840.00,523.00 L 840.00,523.00 L 841.00,524.00 L 841.00,525.00 L 841.00,525.00 L 842.00,526.00 L 842.00,527.00 L 842.00,527.00 L 843.00,528.00 L 843.00,529.00 L 843.00,529.00 L 844.00,530.00 L 844.00,530.00 L 845.00,531.00 L 845.00,531.00 L 846.00,532.00 L 846.00,532.00 L 847.00,532.00 L 848.00,533.00 L 848.00,533.00 L 849.00,534.00 L 849.00,534.00 L 850.00,534.00 L 851.00,534.00 L 852.00,535.00 L 852.00,535.00 L 853.00,535.00 L 854.00,535.00 L 855.00,535.00 L 856.00,535.00 L 857.00,535.00 L 858.00,535.00 L 859.00,535.00 L 860.00,535.00 L 861.00,535.00 L 862.00,535.00 L 862.00,535.00 L 863.00,534.00 L 864.00,534.00 L 864.00,534.00 L 865.00,533.00 L 865.00,533.00 L 866.00,532.00 L 867.00,532.00 L 867.00,532.00 L 868.00,531.00 L 868.00,531.00 L 869.00,530.00 L 869.00,530.00 L 869.00,529.00 L 870.00,528.00 L 870.00,528.00 L 870.00,527.00 L 871.00,526.00 L 871.00,526.00 L 872.00,525.00 L 873.00,525.00 L 874.00,525.00 L 875.00,526.00 L 875.00,526.00 L 876.00,526.00 L 877.00,526.00 L 878.00,526.00 L 879.00,527.00 L 879.00,527.00 L 880.00,527.00 L 881.00,527.00 L 882.00,527.00 L 883.00,528.00 L 883.00,528.00 L 884.00,528.00 L 885.00,528.00 L 886.00,529.00 L 886.00,529.00 L 887.00,530.00 L 887.00,531.00 L 887.00,532.00 L 886.00,533.00 L 886.00,533.00 L 886.00,534.00 L 885.00,535.00 L 885.00,535.00 L 884.00,536.00 L 884.00,536.00 L 884.00,537.00 L 883.00,538.00 L 883.00,538.00 L 882.00,539.00 L 882.00,539.00 L 881.00,540.00 L 881.00,540.00 L 880.00,541.00 L 880.00,541.00 L 879.00,542.00 L 879.00,542.00 L 878.00,543.00 L 878.00,543.00 L 877.00,544.00 L 876.00,544.00 L 876.00,544.00 L 875.00,545.00 L 875.00,545.00 L 874.00,546.00 L 873.00,546.00 L 873.00,546.00 L 872.00,547.00 L 871.00,547.00 L 871.00,547.00 L 870.00,548.00 L 869.00,548.00 L 868.00,548.00 L 868.00,548.00 L 867.00,549.00 L 866.00,549.00 L 865.00,549.00 L 865.00,549.00 L 864.00,550.00 Z" fill="black" stroke="none" /><path d="M 638.00,576.00 L 637.00,576.00 L 636.00,576.00 L 635.00,576.00 L 634.00,576.00 L 633.00,576.00 L 632.00,576.00 L 631.00,576.00 L 630.00,576.00 L 629.00,576.00 L 628.00,576.00 L 627.00,575.00 L 627.00,575.00 L 626.00,575.00 L 625.00,574.00 L 625.00,573.00 L 625.00,572.00 L 625.00,571.00 L 625.00,570.00 L 625.00,569.00 L 625.00,568.00 L 625.00,567.00 L 625.00,566.00 L 625.00,565.00 L 625.00,564.00 L 625.00,563.00 L 625.00,562.00 L 625.00,561.00 L 625.00,560.00 L 626.00,559.00 L 627.00,559.00 L 628.00,559.00 L 629.00,559.00 L 630.00,559.00 L 631.00,559.00 L 632.00,559.00 L 633.00,559.00 L 634.00,559.00 L 634.00,559.00 L 635.00,558.00 L 636.00,558.00 L 636.00,558.00 L 637.00,557.00 L 637.00,557.00 L 638.00,556.00 L 638.00,556.00 L 639.00,555.00 L 639.00,555.00 L 639.00,554.00 L 640.00,553.00 L 640.00,553.00 L 640.00,552.00 L 641.00,551.00 L 641.00,551.00 L 641.00,550.00 L 641.00,549.00 L 642.00,548.00 L 642.00,548.00 L 642.00,547.00 L 642.00,546.00 L 642.00,546.00 L 641.00,545.00 L 641.00,544.00 L 641.00,544.00 L 640.00,543.00 L 640.00,542.00 L 640.00,541.00 L 640.00,541.00 L 639.00,540.00 L 639.00,539.00 L 639.00,538.00 L 639.00,538.00 L 638.00,537.00 L 638.00,536.00 L 638.00,536.00 L 637.00,535.00 L 637.00,534.00 L 637.00,533.00 L 637.00,533.00 L 636.00,532.00 L 636.00,531.00 L 636.00,531.00 L 635.00,530.00 L 635.00,529.00 L 635.00,528.00 L 635.00,528.00 L 634.00,527.00 L 634.00,526.00 L 634.00,525.00 L 634.00,525.00 L 633.00,524.00 L 633.00,523.00 L 633.00,523.00 L 632.00,522.00 L 632.00,521.00 L 632.00,520.00 L 632.00,520.00 L 631.00,519.00 L 631.00,518.00 L 631.00,517.00 L 631.00,517.00 L 630.00,516.00 L 630.00,515.00 L 630.00,515.00 L 629.00,514.00 L 629.00,513.00 L 629.00,512.00 L 629.00,512.00 L 628.00,511.00 L 628.00,510.00 L 628.00,509.00 L 628.00,509.00 L 627.00,508.00 L 627.00,507.00 L 627.00,507.00 L 626.00,506.00 L 626.00,505.00 L 626.00,504.00 L 626.00,504.00 L 625.00,503.00 L 625.00,502.00 L 625.00,502.00 L 624.00,501.00 L 624.00,500.00 L 624.00,499.00 L 624.00,499.00 L 623.00,498.00 L 623.00,497.00 L 623.00,497.00 L 622.00,496.00 L 622.00,495.00 L 622.00,494.00 L 622.00,494.00 L 621.00,493.00 L 621.00,492.00 L 621.00,491.00 L 621.00,491.00 L 620.00,490.00 L 620.00,489.00 L 620.00,489.00 L 619.00,488.00 L 619.00,487.00 L 619.00,486.00 L 619.00,486.00 L 618.00,485.00 L 618.00,484.00 L 618.00,483.00 L 618.00,483.00 L 617.00,482.00 L 617.00,481.00 L 617.00,481.00 L 616.00,480.00 L 616.00,479.00 L 617.00,478.00 L 618.00,478.00 L 619.00,478.00 L 620.00,478.00 L 621.00,478.00 L 622.00,478.00 L 623.00,478.00 L 624.00,478.00 L 625.00,478.00 L 626.00,478.00 L 627.00,478.00 L 628.00,478.00 L 629.00,478.00 L 630.00,478.00 L 631.00,478.00 L 632.00,478.00 L 633.00,478.00 L 634.00,478.00 L 635.00,479.00 L 635.00,479.00 L 636.00,480.00 L 636.00,481.00 L 636.00,481.00 L 637.00,482.00 L 637.00,483.00 L 637.00,484.00 L 637.00,484.00 L 638.00,485.00 L 638.00,486.00 L 638.00,487.00 L 638.00,487.00 L 639.00,488.00 L 639.00,489.00 L 639.00,490.00 L 639.00,490.00 L 640.00,491.00 L 640.00,492.00 L 640.00,492.00 L 641.00,493.00 L 641.00,494.00 L 641.00,495.00 L 641.00,495.00 L 642.00,496.00 L 642.00,497.00 L 642.00,498.00 L 642.00,498.00 L 643.00,499.00 L 643.00,500.00 L 643.00,500.00 L 644.00,501.00 L 644.00,502.00 L 644.00,503.00 L 644.00,503.00 L 645.00,504.00 L 645.00,505.00 L 645.00,506.00 L 645.00,506.00 L 646.00,507.00 L 646.00,508.00 L 646.00,508.00 L 647.00,509.00 L 647.00,510.00 L 647.00,511.00 L 647.00,511.00 L 648.00,512.00 L 648.00,513.00 L 648.00,514.00 L 648.00,514.00 L 649.00,515.00 L 649.00,516.00 L 649.00,516.00 L 650.00,517.00 L 650.00,518.00 L 650.00,519.00 L 650.00,519.00 L 651.00,520.00 L 651.00,521.00 L 651.00,522.00 L 651.00,522.00 L 652.00,523.00 L 652.00,524.00 L 652.00,525.00 L 652.00,525.00 L 652.00,525.00 L 652.00,524.00 L 653.00,523.00 L 653.00,523.00 L 653.00,522.00 L 653.00,521.00 L 654.00,520.00 L 654.00,520.00 L 654.00,519.00 L 654.00,518.00 L 655.00,517.00 L 655.00,517.00 L 655.00,516.00 L 655.00,515.00 L 656.00,514.00 L 656.00,514.00 L 656.00,513.00 L 657.00,512.00 L 657.00,512.00 L 657.00,511.00 L 657.00,510.00 L 658.00,509.00 L 658.00,509.00 L 658.00,508.00 L 658.00,507.00 L 659.00,506.00 L 659.00,506.00 L 659.00,505.00 L 659.00,504.00 L 660.00,503.00 L 660.00,503.00 L 660.00,502.00 L 661.00,501.00 L 661.00,501.00 L 661.00,500.00 L 661.00,499.00 L 662.00,498.00 L 662.00,498.00 L 662.00,497.00 L 662.00,496.00 L 663.00,495.00 L 663.00,495.00 L 663.00,494.00 L 663.00,493.00 L 664.00,492.00 L 664.00,492.00 L 664.00,491.00 L 665.00,490.00 L 665.00,490.00 L 665.00,489.00 L 665.00,488.00 L 666.00,487.00 L 666.00,487.00 L 666.00,486.00 L 666.00,485.00 L 667.00,484.00 L 667.00,484.00 L 667.00,483.00 L 667.00,482.00 L 668.00,481.00 L 668.00,481.00 L 668.00,480.00 L 669.00,479.00 L 669.00,479.00 L 670.00,478.00 L 671.00,478.00 L 672.00,478.00 L 673.00,478.00 L 674.00,478.00 L 675.00,478.00 L 676.00,478.00 L 677.00,478.00 L 678.00,478.00 L 679.00,478.00 L 680.00,478.00 L 681.00,478.00 L 682.00,478.00 L 683.00,478.00 L 684.00,478.00 L 685.00,478.00 L 686.00,478.00 L 687.00,479.00 L 687.00,480.00 L 687.00,481.00 L 686.00,482.00 L 686.00,482.00 L 686.00,483.00 L 685.00,484.00 L 685.00,484.00 L 685.00,485.00 L 685.00,486.00 L 684.00,487.00 L 684.00,487.00 L 684.00,488.00 L 683.00,489.00 L 683.00,489.00 L 683.00,490.00 L 683.00,491.00 L 682.00,492.00 L 682.00,492.00 L 682.00,493.00 L 682.00,494.00 L 681.00,495.00 L 681.00,495.00 L 681.00,496.00 L 680.00,497.00 L 680.00,497.00 L 680.00,498.00 L 680.00,499.00 L 679.00,500.00 L 679.00,500.00 L 679.00,501.00 L 678.00,502.00 L 678.00,502.00 L 678.00,503.00 L 678.00,504.00 L 677.00,505.00 L 677.00,505.00 L 677.00,506.00 L 677.00,507.00 L 676.00,508.00 L 676.00,508.00 L 676.00,509.00 L 675.00,510.00 L 675.00,510.00 L 675.00,511.00 L 675.00,512.00 L 674.00,513.00 L 674.00,513.00 L 674.00,514.00 L 674.00,515.00 L 673.00,516.00 L 673.00,516.00 L 673.00,517.00 L 672.00,518.00 L 672.00,518.00 L 672.00,519.00 L 672.00,520.00 L 671.00,521.00 L 671.00,521.00 L 671.00,522.00 L 671.00,523.00 L 670.00,524.00 L 670.00,524.00 L 670.00,525.00 L 669.00,526.00 L 669.00,526.00 L 669.00,527.00 L 669.00,528.00 L 668.00,529.00 L 668.00,529.00 L 668.00,530.00 L 667.00,531.00 L 667.00,531.00 L 667.00,532.00 L 667.00,533.00 L 666.00,534.00 L 666.00,534.00 L 666.00,535.00 L 666.00,536.00 L 665.00,537.00 L 665.00,537.00 L 665.00,538.00 L 664.00,539.00 L 664.00,539.00 L 664.00,540.00 L 664.00,541.00 L 663.00,542.00 L 663.00,542.00 L 663.00,543.00 L 663.00,544.00 L 662.00,545.00 L 662.00,545.00 L 662.00,546.00 L 661.00,547.00 L 661.00,547.00 L 661.00,548.00 L 661.00,549.00 L 660.00,550.00 L 660.00,550.00 L 660.00,551.00 L 659.00,552.00 L 659.00,552.00 L 659.00,553.00 L 659.00,554.00 L 658.00,555.00 L 658.00,555.00 L 658.00,556.00 L 658.00,557.00 L 657.00,558.00 L 657.00,558.00 L 657.00,559.00 L 656.00,560.00 L 656.00,560.00 L 656.00,561.00 L 655.00,562.00 L 655.00,562.00 L 655.00,563.00 L 654.00,564.00 L 654.00,564.00 L 653.00,565.00 L 653.00,565.00 L 653.00,566.00 L 652.00,567.00 L 652.00,567.00 L 651.00,568.00 L 651.00,568.00 L 650.00,569.00 L 650.00,569.00 L 649.00,570.00 L 649.00,570.00 L 648.00,571.00 L 647.00,571.00 L 647.00,571.00 L 646.00,572.00 L 646.00,572.00 L 645.00,573.00 L 644.00,573.00 L 644.00,573.00 L 643.00,574.00 L 642.00,574.00 L 642.00,574.00 L 641.00,575.00 L 640.00,575.00 L 639.00,575.00 L 639.00,575.00 L 638.00,576.00 Z" fill="black" stroke="none" /><path d="M 738.00,548.00 L 737.00,548.00 L 736.00,548.00 L 735.00,548.00 L 734.00,548.00 L 733.00,548.00 L 732.00,548.00 L 731.00,548.00 L 730.00,548.00 L 729.00,548.00 L 728.00,548.00 L 727.00,548.00 L 726.00,548.00 L 725.00,548.00 L 724.00,548.00 L 723.00,548.00 L 722.00,547.00 L 722.00,547.00 L 721.00,546.00 L 721.00,545.00 L 721.00,544.00 L 721.00,543.00 L 721.00,542.00 L 721.00,541.00 L 721.00,540.00 L 721.00,539.00 L 721.00,538.00 L 721.00,537.00 L 721.00,536.00 L 721.00,535.00 L 721.00,534.00 L 721.00,533.00 L 721.00,532.00 L 721.00,531.00 L 721.00,530.00 L 721.00,529.00 L 721.00,528.00 L 721.00,527.00 L 721.00,526.00 L 721.00,525.00 L 721.00,524.00 L 721.00,523.00 L 721.00,522.00 L 721.00,521.00 L 721.00,520.00 L 721.00,519.00 L 721.00,518.00 L 721.00,517.00 L 721.00,516.00 L 721.00,515.00 L 721.00,514.00 L 721.00,513.00 L 721.00,512.00 L 721.00,511.00 L 721.00,510.00 L 721.00,509.00 L 721.00,508.00 L 721.00,507.00 L 721.00,506.00 L 721.00,505.00 L 721.00,504.00 L 721.00,503.00 L 721.00,502.00 L 721.00,501.00 L 721.00,500.00 L 721.00,499.00 L 721.00,498.00 L 721.00,497.00 L 721.00,496.00 L 721.00,495.00 L 721.00,494.00 L 721.00,493.00 L 721.00,492.00 L 721.00,491.00 L 721.00,490.00 L 721.00,489.00 L 721.00,488.00 L 721.00,487.00 L 721.00,486.00 L 722.00,485.00 L 722.00,485.00 L 722.00,485.00 L 721.00,484.00 L 721.00,483.00 L 721.00,482.00 L 721.00,481.00 L 721.00,480.00 L 722.00,479.00 L 722.00,479.00 L 723.00,478.00 L 724.00,478.00 L 725.00,478.00 L 726.00,478.00 L 727.00,478.00 L 728.00,478.00 L 729.00,478.00 L 730.00,478.00 L 731.00,478.00 L 732.00,478.00 L 733.00,478.00 L 734.00,478.00 L 735.00,478.00 L 736.00,478.00 L 737.00,478.00 L 738.00,478.00 L 739.00,479.00 L 739.00,480.00 L 739.00,481.00 L 739.00,482.00 L 739.00,483.00 L 739.00,484.00 L 739.00,485.00 L 739.00,486.00 L 739.00,487.00 L 739.00,488.00 L 739.00,489.00 L 739.00,490.00 L 739.00,491.00 L 739.00,492.00 L 739.00,493.00 L 739.00,494.00 L 739.00,495.00 L 739.00,496.00 L 739.00,497.00 L 739.00,498.00 L 739.00,499.00 L 739.00,500.00 L 739.00,501.00 L 739.00,502.00 L 739.00,503.00 L 739.00,504.00 L 739.00,505.00 L 739.00,506.00 L 739.00,507.00 L 739.00,508.00 L 739.00,509.00 L 739.00,510.00 L 739.00,511.00 L 739.00,512.00 L 739.00,513.00 L 739.00,514.00 L 739.00,515.00 L 739.00,516.00 L 739.00,517.00 L 739.00,518.00 L 739.00,519.00 L 739.00,520.00 L 739.00,521.00 L 739.00,522.00 L 739.00,523.00 L 739.00,524.00 L 739.00,525.00 L 739.00,526.00 L 739.00,527.00 L 739.00,528.00 L 739.00,529.00 L 739.00,530.00 L 739.00,531.00 L 739.00,532.00 L 739.00,533.00 L 739.00,534.00 L 739.00,535.00 L 739.00,536.00 L 739.00,537.00 L 739.00,538.00 L 739.00,539.00 L 739.00,540.00 L 739.00,541.00 L 739.00,542.00 L 739.00,543.00 L 739.00,544.00 L 739.00,545.00 L 739.00,546.00 L 739.00,547.00 L 738.00,548.00 Z" fill="black" stroke="none" /><path d="M 871.00,505.00 L 871.00,505.00 L 870.00,504.00 L 870.00,503.00 L 870.00,502.00 L 870.00,501.00 L 870.00,501.00 L 869.00,500.00 L 869.00,499.00 L 869.00,499.00 L 868.00,498.00 L 868.00,498.00 L 867.00,497.00 L 867.00,497.00 L 866.00,496.00 L 866.00,495.00 L 866.00,495.00 L 865.00,495.00 L 864.00,494.00 L 864.00,494.00 L 863.00,493.00 L 863.00,493.00 L 862.00,493.00 L 861.00,492.00 L 861.00,492.00 L 860.00,492.00 L 859.00,492.00 L 858.00,491.00 L 858.00,491.00 L 857.00,491.00 L 856.00,491.00 L 855.00,491.00 L 854.00,491.00 L 853.00,491.00 L 853.00,491.00 L 852.00,492.00 L 851.00,492.00 L 850.00,492.00 L 850.00,492.00 L 849.00,493.00 L 848.00,493.00 L 848.00,493.00 L 847.00,494.00 L 846.00,494.00 L 846.00,494.00 L 845.00,495.00 L 845.00,495.00 L 844.00,496.00 L 844.00,496.00 L 844.00,497.00 L 843.00,498.00 L 843.00,498.00 L 842.00,499.00 L 842.00,499.00 L 842.00,500.00 L 841.00,501.00 L 841.00,501.00 L 841.00,502.00 L 840.00,503.00 L 840.00,503.00 L 840.00,504.00 L 840.00,505.00 L 840.00,505.00 L 841.00,505.00 L 842.00,505.00 L 843.00,505.00 L 844.00,505.00 L 845.00,505.00 L 846.00,505.00 L 847.00,505.00 L 848.00,505.00 L 849.00,505.00 L 850.00,505.00 L 851.00,505.00 L 852.00,505.00 L 853.00,505.00 L 854.00,505.00 L 855.00,505.00 L 856.00,505.00 L 857.00,505.00 L 858.00,505.00 L 859.00,505.00 L 860.00,505.00 L 861.00,505.00 L 862.00,505.00 L 863.00,505.00 L 864.00,505.00 L 865.00,505.00 L 866.00,505.00 L 867.00,505.00 L 868.00,505.00 L 869.00,505.00 L 870.00,505.00 L 871.00,505.00 L 871.00,505.00 Z" fill="black" stroke="none" /><path d="M 530.00,534.00 L 531.00,533.00 L 532.00,533.00 L 533.00,533.00 L 533.00,533.00 L 534.00,532.00 L 535.00,532.00 L 535.00,532.00 L 536.00,531.00 L 536.00,531.00 L 537.00,530.00 L 538.00,530.00 L 538.00,530.00 L 539.00,529.00 L 539.00,529.00 L 540.00,528.00 L 540.00,528.00 L 540.00,527.00 L 541.00,526.00 L 541.00,526.00 L 542.00,525.00 L 542.00,525.00 L 542.00,524.00 L 543.00,523.00 L 543.00,523.00 L 543.00,522.00 L 543.00,521.00 L 544.00,520.00 L 544.00,520.00 L 544.00,519.00 L 544.00,518.00 L 544.00,517.00 L 544.00,516.00 L 544.00,515.00 L 544.00,514.00 L 544.00,513.00 L 544.00,512.00 L 544.00,511.00 L 544.00,510.00 L 544.00,509.00 L 544.00,508.00 L 544.00,507.00 L 544.00,507.00 L 543.00,506.00 L 543.00,505.00 L 543.00,504.00 L 543.00,504.00 L 542.00,503.00 L 542.00,502.00 L 542.00,502.00 L 541.00,501.00 L 541.00,500.00 L 541.00,500.00 L 540.00,499.00 L 540.00,499.00 L 539.00,498.00 L 539.00,498.00 L 538.00,497.00 L 538.00,497.00 L 537.00,496.00 L 537.00,496.00 L 536.00,496.00 L 535.00,495.00 L 535.00,495.00 L 534.00,494.00 L 534.00,494.00 L 533.00,494.00 L 532.00,494.00 L 531.00,493.00 L 531.00,493.00 L 530.00,493.00 L 529.00,493.00 L 528.00,493.00 L 527.00,493.00 L 526.00,493.00 L 525.00,493.00 L 524.00,493.00 L 523.00,493.00 L 522.00,493.00 L 522.00,493.00 L 521.00,494.00 L 520.00,494.00 L 520.00,494.00 L 519.00,495.00 L 518.00,495.00 L 518.00,495.00 L 517.00,496.00 L 516.00,496.00 L 516.00,496.00 L 515.00,497.00 L 515.00,497.00 L 514.00,498.00 L 514.00,498.00 L 513.00,499.00 L 513.00,499.00 L 513.00,500.00 L 512.00,501.00 L 512.00,501.00 L 511.00,502.00 L 511.00,502.00 L 511.00,503.00 L 511.00,504.00 L 510.00,505.00 L 510.00,505.00 L 510.00,506.00 L 510.00,507.00 L 509.00,508.00 L 509.00,508.00 L 509.00,509.00 L 509.00,510.00 L 509.00,511.00 L 509.00,512.00 L 509.00,513.00 L 509.00,514.00 L 509.00,515.00 L 509.00,516.00 L 509.00,517.00 L 509.00,518.00 L 509.00,518.00 L 510.00,519.00 L 510.00,520.00 L 510.00,521.00 L 510.00,522.00 L 510.00,522.00 L 511.00,523.00 L 511.00,524.00 L 511.00,524.00 L 512.00,525.00 L 512.00,526.00 L 512.00,526.00 L 513.00,527.00 L 513.00,527.00 L 514.00,528.00 L 514.00,528.00 L 515.00,529.00 L 515.00,529.00 L 516.00,530.00 L 516.00,530.00 L 517.00,531.00 L 517.00,531.00 L 518.00,532.00 L 518.00,532.00 L 519.00,532.00 L 520.00,532.00 L 521.00,533.00 L 521.00,533.00 L 522.00,533.00 L 523.00,533.00 L 524.00,534.00 L 524.00,534.00 L 525.00,534.00 L 526.00,534.00 L 527.00,534.00 L 528.00,534.00 L 529.00,534.00 L 530.00,534.00 L 530.00,534.00 Z" fill="black" stroke="none" /><path d="M 216.00,511.00 L 215.00,511.00 L 214.00,511.00 L 213.00,511.00 L 212.00,511.00 L 211.00,511.00 L 210.00,511.00 L 209.00,511.00 L 208.00,511.00 L 207.00,511.00 L 206.00,511.00 L 205.00,511.00 L 204.00,511.00 L 203.00,511.00 L 202.00,511.00 L 201.00,511.00 L 200.00,511.00 L 199.00,511.00 L 198.00,511.00 L 197.00,511.00 L 196.00,511.00 L 195.00,511.00 L 194.00,511.00 L 193.00,511.00 L 192.00,511.00 L 191.00,511.00 L 190.00,511.00 L 189.00,511.00 L 188.00,511.00 L 187.00,511.00 L 186.00,511.00 L 185.00,511.00 L 184.00,511.00 L 183.00,511.00 L 182.00,511.00 L 181.00,511.00 L 180.00,511.00 L 179.00,511.00 L 178.00,511.00 L 177.00,511.00 L 176.00,511.00 L 175.00,511.00 L 174.00,511.00 L 173.00,511.00 L 172.00,511.00 L 171.00,510.00 L 171.00,510.00 L 170.00,509.00 L 170.00,509.00 L 169.00,508.00 L 169.00,508.00 L 168.00,507.00 L 168.00,506.00 L 168.00,505.00 L 168.00,504.00 L 168.00,503.00 L 169.00,502.00 L 169.00,502.00 L 170.00,501.00 L 170.00,501.00 L 171.00,500.00 L 172.00,500.00 L 172.00,500.00 L 173.00,499.00 L 174.00,499.00 L 175.00,499.00 L 176.00,499.00 L 177.00,499.00 L 178.00,499.00 L 179.00,499.00 L 180.00,499.00 L 181.00,499.00 L 182.00,499.00 L 183.00,499.00 L 184.00,499.00 L 185.00,499.00 L 186.00,499.00 L 187.00,499.00 L 188.00,499.00 L 189.00,499.00 L 190.00,499.00 L 191.00,499.00 L 192.00,499.00 L 193.00,499.00 L 194.00,499.00 L 195.00,499.00 L 196.00,499.00 L 197.00,499.00 L 198.00,499.00 L 199.00,499.00 L 200.00,499.00 L 201.00,499.00 L 202.00,499.00 L 203.00,499.00 L 204.00,499.00 L 205.00,499.00 L 206.00,499.00 L 207.00,499.00 L 208.00,499.00 L 209.00,499.00 L 210.00,499.00 L 211.00,499.00 L 212.00,499.00 L 213.00,499.00 L 214.00,499.00 L 215.00,499.00 L 216.00,500.00 L 216.00,500.00 L 217.00,500.00 L 218.00,501.00 L 218.00,501.00 L 219.00,502.00 L 219.00,502.00 L 220.00,503.00 L 220.00,504.00 L 220.00,505.00 L 220.00,506.00 L 220.00,507.00 L 219.00,508.00 L 219.00,508.00 L 218.00,509.00 L 218.00,509.00 L 217.00,510.00 L 217.00,510.00 L 216.00,511.00 Z" fill="black" stroke="none" /><path d="M 201.00,537.00 L 200.00,537.00 L 199.00,537.00 L 198.00,537.00 L 197.00,537.00 L 196.00,537.00 L 195.00,537.00 L 194.00,537.00 L 193.00,537.00 L 192.00,537.00 L 191.00,537.00 L 190.00,537.00 L 189.00,537.00 L 188.00,537.00 L 187.00,537.00 L 186.00,537.00 L 185.00,537.00 L 184.00,537.00 L 183.00,537.00 L 182.00,537.00 L 181.00,537.00 L 180.00,537.00 L 179.00,537.00 L 178.00,537.00 L 177.00,537.00 L 176.00,537.00 L 175.00,537.00 L 174.00,537.00 L 173.00,537.00 L 172.00,536.00 L 172.00,536.00 L 171.00,536.00 L 170.00,535.00 L 170.00,535.00 L 169.00,534.00 L 169.00,534.00 L 168.00,533.00 L 168.00,532.00 L 168.00,531.00 L 168.00,530.00 L 168.00,529.00 L 169.00,528.00 L 169.00,528.00 L 170.00,527.00 L 170.00,527.00 L 171.00,526.00 L 171.00,526.00 L 172.00,525.00 L 173.00,525.00 L 174.00,525.00 L 175.00,525.00 L 176.00,525.00 L 177.00,525.00 L 178.00,525.00 L 179.00,525.00 L 180.00,525.00 L 181.00,525.00 L 182.00,525.00 L 183.00,525.00 L 184.00,525.00 L 185.00,525.00 L 186.00,525.00 L 187.00,525.00 L 188.00,525.00 L 189.00,525.00 L 190.00,525.00 L 191.00,525.00 L 192.00,525.00 L 193.00,525.00 L 194.00,525.00 L 195.00,525.00 L 196.00,525.00 L 197.00,525.00 L 198.00,525.00 L 199.00,525.00 L 200.00,525.00 L 201.00,525.00 L 202.00,526.00 L 202.00,526.00 L 203.00,526.00 L 204.00,527.00 L 204.00,527.00 L 205.00,528.00 L 205.00,529.00 L 205.00,529.00 L 206.00,530.00 L 206.00,531.00 L 206.00,532.00 L 205.00,533.00 L 205.00,533.00 L 205.00,534.00 L 204.00,535.00 L 204.00,535.00 L 203.00,536.00 L 202.00,536.00 L 202.00,536.00 L 201.00,537.00 Z" fill="black" stroke="none" /></svg>